<svg id="Camada_1" data-name="Camada 1" xmlns="http://www.w3.org/2000/svg" viewBox="0 0 1920 1080"><defs><style>.cls-1{opacity:0.25;}.cls-2{fill:#b7b7b7;}</style></defs><title>Prancheta 1</title><g class="cls-1"><path class="cls-2" d="M238.3,99.25l-95.93,24.28a13,13,0,0,0-9.43,15.82l17.25,68.16A13,13,0,0,0,166,216.94l34.52-8.74-.41,13.54-8.2,2.07,1.28,5.05,50.49-12.78L242.41,211l-8.19,2.07-6.8-11.71,34.52-8.73a13,13,0,0,0,9.43-15.82l-17.25-68.16A13,13,0,0,0,238.3,99.25ZM205.37,220.41l.41-13.54,16.39-4.15,6.8,11.71Zm60.95-42.29a7.82,7.82,0,0,1-5.66,9.49l-95.93,24.28a7.82,7.82,0,0,1-9.49-5.66l-1.28-5L265,173.07ZM263.76,168,152.68,196.13,138,138.07a7.81,7.81,0,0,1,5.65-9.49l95.94-24.28a7.81,7.81,0,0,1,9.49,5.65Z"/><path class="cls-2" d="M239.92,222.41,169.23,240.3a2.6,2.6,0,0,0-1.88,3.16l7.66,30.3a2.61,2.61,0,0,0,3.17,1.88l70.68-17.89a2.6,2.6,0,0,0,1.89-3.16l-7.67-30.3A2.6,2.6,0,0,0,239.92,222.41Zm5.14,30.93L179.42,270,173,244.71l65.64-16.62Z"/><rect class="cls-2" x="182.48" y="257.86" width="5.21" height="5.21" transform="translate(-58.25 53.37) rotate(-14.2)"/><rect class="cls-2" x="179.92" y="247.76" width="5.21" height="5.21" transform="translate(-55.85 52.44) rotate(-14.2)"/><rect class="cls-2" x="190.02" y="245.2" width="5.21" height="5.21" transform="translate(-54.91 54.84) rotate(-14.2)"/><rect class="cls-2" x="200.12" y="242.65" width="5.21" height="5.21" transform="translate(-53.98 57.23) rotate(-14.2)"/><rect class="cls-2" x="220.31" y="237.54" width="5.21" height="5.21" transform="translate(-52.11 62.03) rotate(-14.2)"/><rect class="cls-2" x="210.22" y="240.09" width="5.21" height="5.21" transform="translate(-53.04 59.63) rotate(-14.2)"/><rect class="cls-2" x="232.97" y="245.08" width="5.21" height="5.21" transform="translate(-53.57 65.37) rotate(-14.2)"/><rect class="cls-2" x="230.41" y="234.98" width="5.21" height="5.21" transform="translate(-51.17 64.43) rotate(-14.2)"/><rect class="cls-2" x="192.1" y="251.47" width="36.46" height="5.21" transform="translate(-55.91 59.37) rotate(-14.2)"/><path class="cls-2" d="M260.12,217.3a13,13,0,0,0-9.43,15.81l2.55,10.1a13,13,0,0,0,25.25-6.39l-2.56-10.1A13,13,0,0,0,260.12,217.3Zm13.32,20.8a7.81,7.81,0,1,1-15.15,3.83l-2.55-10.1A7.81,7.81,0,1,1,270.88,228Z"/><rect class="cls-2" x="260.71" y="227.31" width="5.21" height="5.21" transform="translate(-48.36 71.63) rotate(-14.2)"/><rect class="cls-2" x="181.6" y="149.23" width="37.9" height="5.21" transform="translate(42.61 347.6) rotate(-88.23)"/><path class="cls-2" d="M184.32,144.52l-4.21-3.06-12,16.46a2.62,2.62,0,0,0,.58,3.64,2.75,2.75,0,0,0,.41.24l18.34,8.79,2.25-4.7-15.53-7.44Z"/><path class="cls-2" d="M232.38,142a1.69,1.69,0,0,0-.41-.24L213.63,133l-2.25,4.69,15.53,7.44L216.79,159,221,162.1l12-16.46A2.6,2.6,0,0,0,232.38,142Z"/></g><g class="cls-1"><path class="cls-2" d="M1793.42,119.78a2.41,2.41,0,0,1-1.53-.56l-15.27-13a2.37,2.37,0,0,1,0-3.6l15.27-13a2.36,2.36,0,1,1,3.06,3.6l-13.16,11.21L1795,115.62a2.36,2.36,0,0,1-1.53,4.16Z"/><path class="cls-2" d="M1823.58,119.78a2.36,2.36,0,0,1-1.53-4.16l13.16-11.21L1822.05,93.2a2.36,2.36,0,0,1,3.06-3.6l15.27,13a2.37,2.37,0,0,1,0,3.6l-15.27,13A2.41,2.41,0,0,1,1823.58,119.78Z"/><path class="cls-2" d="M1803.09,129.54a2.81,2.81,0,0,1-.49,0,2.37,2.37,0,0,1-1.82-2.8l9.52-45.21a2.36,2.36,0,1,1,4.62,1l-9.52,45.2A2.38,2.38,0,0,1,1803.09,129.54Z"/><path class="cls-2" d="M1864.15,154.17h-111.3A15.87,15.87,0,0,1,1737,138.31V43.85A15.87,15.87,0,0,1,1752.85,28h111.3A15.87,15.87,0,0,1,1880,43.85v94.46A15.87,15.87,0,0,1,1864.15,154.17ZM1752.85,32.72a11.14,11.14,0,0,0-11.13,11.13v94.46a11.14,11.14,0,0,0,11.13,11.13h111.3a11.14,11.14,0,0,0,11.13-11.13V43.85a11.14,11.14,0,0,0-11.13-11.13Z"/><path class="cls-2" d="M1877.64,65.8H1739.36a2.36,2.36,0,1,1,0-4.72h138.28a2.36,2.36,0,0,1,0,4.72Z"/><path class="cls-2" d="M1777.34,54.51a7.48,7.48,0,1,1,7.47-7.47A7.48,7.48,0,0,1,1777.34,54.51Zm0-10.22a2.75,2.75,0,1,0,2.75,2.75A2.75,2.75,0,0,0,1777.34,44.29Z"/><path class="cls-2" d="M1754.38,54.43a7.47,7.47,0,1,1,7.47-7.47A7.48,7.48,0,0,1,1754.38,54.43Zm0-10.22a2.75,2.75,0,1,0,2.75,2.75A2.76,2.76,0,0,0,1754.38,44.21Z"/><path class="cls-2" d="M1800.29,54.58a7.47,7.47,0,1,1,7.47-7.47A7.48,7.48,0,0,1,1800.29,54.58Zm0-10.22a2.75,2.75,0,1,0,2.75,2.75A2.75,2.75,0,0,0,1800.29,44.36Z"/></g><g class="cls-1"><path class="cls-2" d="M1425.59,56.16a7,7,0,1,0,7,7A7,7,0,0,0,1425.59,56.16Zm0,9.23a2.23,2.23,0,1,1,2.23-2.23A2.23,2.23,0,0,1,1425.59,65.39Z"/><path class="cls-2" d="M1443.42,56.16a7,7,0,1,0,7,7A7,7,0,0,0,1443.42,56.16Zm0,9.23a2.23,2.23,0,1,1,2.23-2.23A2.23,2.23,0,0,1,1443.42,65.39Z"/><path class="cls-2" d="M1461.24,56.16a7,7,0,1,0,7,7A7,7,0,0,0,1461.24,56.16Zm0,9.23a2.23,2.23,0,1,1,2.23-2.23A2.23,2.23,0,0,1,1461.24,65.39Z"/><path class="cls-2" d="M1568.43,94.06a2.39,2.39,0,0,0,2.39-2.38L1571,57.5A10.51,10.51,0,0,0,1560.5,47h-142A10.51,10.51,0,0,0,1408,57.5V172.93a10.51,10.51,0,0,0,8.9,10.37,9.42,9.42,0,0,0,1.6.13h46.42V192h-7.2a8.73,8.73,0,0,0-8.72,8.71v5.16a4,4,0,0,0,4,4h11.37a2.39,2.39,0,1,0,0-4.78h-10.58v-4.36a4,4,0,0,1,4-3.94h63.38a4,4,0,0,1,4,3.94v4.36h-45.89a2.39,2.39,0,0,0,0,4.78h46.68a4,4,0,0,0,4-4v-5.16a8.73,8.73,0,0,0-8.72-8.71h-7.2v-8.55h46.42a9.42,9.42,0,0,0,1.6-.13,10.51,10.51,0,0,0,8.9-10.37V106.47a2.39,2.39,0,1,0-4.77,0v52.64h-74.57V79.45h74.57V91.68A2.39,2.39,0,0,0,1568.43,94.06ZM1413,79.45h73.76v79.48H1413ZM1509.13,192h-39.44v-8.55h39.44Zm56.92-28.1v9.05a5.74,5.74,0,0,1-5.15,5.7l-.58,0H1418.5l-.58,0a5.74,5.74,0,0,1-5.15-5.7v-9.05Zm-77-89.2H1413V57.5a5.73,5.73,0,0,1,5.72-5.73h141.65a5.74,5.74,0,0,1,5.73,5.73V74.68Z"/><path class="cls-2" d="M1422.93,89H1435a2.39,2.39,0,0,0,0-4.77h-12.09a2.39,2.39,0,0,0,0,4.77Z"/><path class="cls-2" d="M1443.29,89H1449a2.39,2.39,0,1,0,0-4.77h-5.72a2.39,2.39,0,1,0,0,4.77Z"/><path class="cls-2" d="M1441.06,92.61h-8a2.39,2.39,0,0,0,0,4.77h8a2.39,2.39,0,1,0,0-4.77Z"/><path class="cls-2" d="M1478.59,101.33h-7.95a2.39,2.39,0,0,0,0,4.77h7.95a2.39,2.39,0,1,0,0-4.77Z"/><path class="cls-2" d="M1446,95a2.39,2.39,0,0,0,2.39,2.39h19.08a2.39,2.39,0,1,0,0-4.77h-19.08A2.39,2.39,0,0,0,1446,95Z"/><path class="cls-2" d="M1438.36,103.72a2.39,2.39,0,0,0,2.39,2.38h4.13a2.39,2.39,0,1,0,0-4.77h-4.13A2.39,2.39,0,0,0,1438.36,103.72Z"/><path class="cls-2" d="M1463.33,106.1a2.39,2.39,0,0,0,0-4.77h-11.45a2.39,2.39,0,1,0,0,4.77Z"/><path class="cls-2" d="M1437.4,134.64a2.38,2.38,0,0,0-2.38-2.39h-12.09a2.39,2.39,0,0,0,0,4.77H1435A2.38,2.38,0,0,0,1437.4,134.64Z"/><path class="cls-2" d="M1443.29,132.25a2.39,2.39,0,1,0,0,4.77H1449a2.39,2.39,0,1,0,0-4.77Z"/><path class="cls-2" d="M1443.45,143.06a2.39,2.39,0,0,0-2.39-2.39h-8a2.39,2.39,0,0,0,0,4.77h8A2.39,2.39,0,0,0,1443.45,143.06Z"/><path class="cls-2" d="M1444.88,149.39h-4.13a2.39,2.39,0,1,0,0,4.77h4.13a2.39,2.39,0,1,0,0-4.77Z"/><path class="cls-2" d="M1478.59,149.39h-7.95a2.39,2.39,0,0,0,0,4.77h7.95a2.39,2.39,0,1,0,0-4.77Z"/><path class="cls-2" d="M1469.85,143.06a2.39,2.39,0,0,0-2.39-2.39h-19.08a2.39,2.39,0,1,0,0,4.77h19.08A2.39,2.39,0,0,0,1469.85,143.06Z"/><path class="cls-2" d="M1463.33,149.39h-11.45a2.39,2.39,0,1,0,0,4.77h11.45a2.39,2.39,0,0,0,0-4.77Z"/><path class="cls-2" d="M1422.93,117h6.68a2.39,2.39,0,1,0,0-4.77h-6.68a2.39,2.39,0,0,0,0,4.77Z"/><path class="cls-2" d="M1463.17,114.65a2.39,2.39,0,0,0-2.39-2.39h-24.49a2.39,2.39,0,0,0,0,4.77h24.49A2.39,2.39,0,0,0,1463.17,114.65Z"/><path class="cls-2" d="M1458.72,123.07a2.39,2.39,0,0,0-2.39-2.39h-23.22a2.39,2.39,0,0,0,0,4.77h23.22A2.38,2.38,0,0,0,1458.72,123.07Z"/><path class="cls-2" d="M1463,125.45h4.45a2.39,2.39,0,1,0,0-4.77H1463a2.39,2.39,0,1,0,0,4.77Z"/><path class="cls-2" d="M1517.2,139.21h-15.26a2.39,2.39,0,1,0,0,4.77h15.26a2.39,2.39,0,1,0,0-4.77Z"/><path class="cls-2" d="M1556,139.21h-30.22a2.39,2.39,0,0,0,0,4.77H1556a2.39,2.39,0,0,0,0-4.77Z"/><path class="cls-2" d="M1517.2,148.44h-15.26a2.39,2.39,0,1,0,0,4.77h15.26a2.39,2.39,0,1,0,0-4.77Z"/><path class="cls-2" d="M1556,148.44h-30.22a2.39,2.39,0,0,0,0,4.77H1556a2.39,2.39,0,0,0,0-4.77Z"/><path class="cls-2" d="M1558.47,90.35a6.17,6.17,0,0,0-6.17-6.16h-46.66a6.16,6.16,0,0,0-6.16,6.16v32.31h0v5.65a6.17,6.17,0,0,0,6.16,6.17h46.66a6.18,6.18,0,0,0,6.17-6.17Zm-4.77,38a1.4,1.4,0,0,1-1.4,1.4h-46.66a1.4,1.4,0,0,1-1.39-1.4v-4.66l17.47-17.46,12.06,13.59a2.39,2.39,0,1,0,3.57-3.17l-1.1-1.23,5.4-5.39,12,13.58Zm0-11.93L1544.51,106a3.76,3.76,0,0,0-5.49-.16l-5.94,5.93-8.49-9.57a3.77,3.77,0,0,0-5.5-.16l-14.84,14.83V90.35a1.39,1.39,0,0,1,1.39-1.39h46.66a1.4,1.4,0,0,1,1.4,1.39Z"/></g><g class="cls-1"><path class="cls-2" d="M235.18,516.81l5.24.74-.73,5.23-5.24-.73Z"/><path class="cls-2" d="M230.71,480.92l8.3,8.44-3.1,22.22,5.24.73,3.46-24.79-10.13-10.31Z"/><path class="cls-2" d="M350.67,378a7.86,7.86,0,0,0-8.83,9.47l-18.73,9a66,66,0,0,0-100.56-11l-13-15.84a7.85,7.85,0,0,0,1.17-3.13,7.94,7.94,0,1,0-9,6.76,7.83,7.83,0,0,0,3.62-.37l13.45,16.39a65.77,65.77,0,0,0-16.15,34.85l-.79,5.72a66.5,66.5,0,0,0,18.33,55.48l7.58,7.71-4.57,32.77,5.24.73,4.93-35.34L224,481.64a61.21,61.21,0,0,1-16.86-51l.79-5.72a60.6,60.6,0,0,1,14.31-31.43l5.77,7a7.89,7.89,0,0,0,2.46,10.72l-2.75,11.34a7.92,7.92,0,0,0-.29,15.73,7.84,7.84,0,0,0,4.54-.71l8.18,8.13a7.72,7.72,0,0,0-.71,2.27,7.92,7.92,0,0,0,4.21,8.11l-1.53,11,5.24.73,1.53-11a7.91,7.91,0,0,0,2.59-14.48l4.18-19.12a7.87,7.87,0,0,0,5.31-3.09l16.49,5.16a7.93,7.93,0,0,0,6.81,7.57,7.53,7.53,0,0,0,1.42,0l2.38,6a8,8,0,0,0-2.64,4.84c0,.2,0,.4,0,.6l-10.72,3.08A7.91,7.91,0,1,0,264.61,459l-1.53,11,5.24.73,1.53-11a7.92,7.92,0,0,0,6.26-6.65,6.08,6.08,0,0,0,0-.61l10.71-3.08a7.91,7.91,0,0,0,13-8.95l7.42-9.85a7.6,7.6,0,0,0,1.27.31,7.94,7.94,0,1,0,2.19-15.72,7.63,7.63,0,0,0-1.58-.06l-2.12-5,14.05-6.78a60.58,60.58,0,0,1,7.33,38.33L324,473.85l-8,1.49-6.48,27.79-18.56-2.59a18.55,18.55,0,0,1-15.79-20.9l-5.24-.73a23.84,23.84,0,0,0,17.7,26.35l-4,29,5.24.73,4-28.82L313.49,509l6.79-29.12,8.4-1.55,5-35.95a65.8,65.8,0,0,0-7.8-41.36l18.72-9a7.85,7.85,0,0,0,3.87,1.71A7.94,7.94,0,1,0,350.67,378ZM200.25,365.06a2.65,2.65,0,1,1,2.25,3A2.65,2.65,0,0,1,200.25,365.06Zm67.64,89.54a2.64,2.64,0,1,1,3-2.25A2.64,2.64,0,0,1,267.89,454.6Zm2.68-61.05,18,2.51-28.38,13.69a7.7,7.7,0,0,0-.6-.54l4-11.4a7.93,7.93,0,0,0,7-4.26Zm32.52,33.84-7.42,9.85a8,8,0,0,0-1.28-.31,8.39,8.39,0,0,0-1.41-.05l-2.39-6a7.85,7.85,0,0,0,2.64-4.83,7.94,7.94,0,0,0-2.61-7l6.66-16.51a7.49,7.49,0,0,0,.82,0l6.23,14.66a7.77,7.77,0,0,0-1.24,10.16Zm-24-7.15-16.49-5.16a3.66,3.66,0,0,0-.05-.57l29.53-14.24c.11.11.2.22.31.32l-6.66,16.52A7.86,7.86,0,0,0,279.06,420.24Zm18.19-23a2.65,2.65,0,1,1,3-2.26A2.65,2.65,0,0,1,297.25,397.27Zm-34.06-4.75a2.65,2.65,0,1,1,3-2.25A2.65,2.65,0,0,1,263.19,392.52Zm-5.08,3.13a6.26,6.26,0,0,0,.49.41l-4,11.41a7.92,7.92,0,0,0-7.82,6.81,7.79,7.79,0,0,0,.09,2.51l-13.22,7.62a6.78,6.78,0,0,0-.81-.6l2.75-11.35a7.75,7.75,0,0,0,7-8.9Zm-14.25,46.27-8.19-8.13a7.19,7.19,0,0,0,.63-4.79l13.22-7.61a7.44,7.44,0,0,0,1,.71l-4.18,19.12a7.72,7.72,0,0,0-2.44.7Zm-6.44-37a2.65,2.65,0,1,1-2.26-3A2.65,2.65,0,0,1,237.42,405Zm-11.51,25.1a2.65,2.65,0,1,1,2.25,3A2.65,2.65,0,0,1,225.91,430.06Zm21,21.62a2.65,2.65,0,0,1,.73-5.24,2.65,2.65,0,1,1-.73,5.24ZM254.3,418a2.65,2.65,0,1,1,3-2.25A2.65,2.65,0,0,1,254.3,418Zm28.45,6.64a2.65,2.65,0,1,1,2.26,3A2.65,2.65,0,0,1,282.75,424.63Zm10.18,22.78a2.65,2.65,0,1,1,3-2.25A2.65,2.65,0,0,1,292.93,447.41Zm19.37-24a2.65,2.65,0,1,1-2.26-3A2.65,2.65,0,0,1,312.3,423.4ZM305,405.26l-2-4.8a7.82,7.82,0,0,0,2.51-4.72A7.92,7.92,0,0,0,290.6,391l-19.31-2.69a7.9,7.9,0,0,0-15.57,2.62l-15.48,7.91a7.74,7.74,0,0,0-8.12-1.68l-6.2-7.57a60.72,60.72,0,0,1,92.38,9.25Zm44.22-16.77a2.65,2.65,0,1,1,3-2.26A2.65,2.65,0,0,1,349.21,388.49Z"/></g><g class="cls-1"><path class="cls-2" d="M1094,259.65a14,14,0,1,0,14,14A14,14,0,0,0,1094,259.65Zm0,22.45a8.42,8.42,0,1,1,8.42-8.42A8.43,8.43,0,0,1,1094,282.1Z"/><path class="cls-2" d="M1091.19,164.23h22.46v5.61h-22.46Z"/><path class="cls-2" d="M1091.19,175.45h22.46v5.61h-22.46Z"/><path class="cls-2" d="M1074.35,186.68h39.3v5.61h-39.3Z"/><path class="cls-2" d="M1074.35,197.9h39.3v5.62h-39.3Z"/><path class="cls-2" d="M1074.35,209.13h39.3v5.61h-39.3Z"/><path class="cls-2" d="M1181,242.81V220.35h-39.29v22.46h16.84v28.06h-33.68V266l-6.89-2.3,3.25-6.49-10.8-10.8-6.5,3.25-2.29-6.89h-4.83V226h28.06V192.29h33.68V208l-6.44-6.44-4,4,13.21,13.21,13.21-13.21-4-4-6.44,6.44V186.68h-39.29V153h-43.26l-18.48,18.48v15.2h-39.29V208l-6.44-6.44-4,4,13.21,13.21,13.21-13.21-4-4-6.44,6.44V192.29h33.68V226h28.06v16.84h-4.83l-2.29,6.89-6.5-3.25-10.8,10.8,3.25,6.49-6.89,2.3v4.83h-33.68V242.81h16.84V220.35H1007v22.46h16.84v45.3a11.23,11.23,0,1,0,5.61,0V276.48h16.84v34.2a8.43,8.43,0,1,0,5.61,0v-34.2h11.23v4.83l6.89,2.3-3.25,6.5,10.8,10.8,6.5-3.25,2.29,6.89h15.27l2.3-6.89,6.5,3.25,10.8-10.8-3.25-6.5,6.89-2.3v-4.83h11.23v34.2a8.42,8.42,0,1,0,5.61,0v-34.2h16.84v11.63a11.23,11.23,0,1,0,5.61,0v-45.3Zm-101-80.23v7.26h-7.26Zm-11.23,12.87h16.84V158.61h33.68v61.74h-50.52ZM1012.61,226h28.07v11.22h-28.07Zm19.65,73a5.62,5.62,0,1,1-5.61-5.62A5.62,5.62,0,0,1,1032.26,298.94Zm16.84,22.45a2.81,2.81,0,1,1,2.8-2.81A2.81,2.81,0,0,1,1049.1,321.39Zm70.16-44.12-6.44,2.14-.47,1.24c-.15.36-.28.72-.44,1.06l-.54,1.22,3,6.07-5.08,5.07-6.06-3-1.22.54c-.34.16-.69.3-1,.44l-1.25.47-2.15,6.45h-7.18l-2.15-6.45L1087,292c-.36-.14-.71-.28-1-.44l-1.22-.54-6.07,3L1073.6,289l3-6.07-.54-1.22c-.16-.35-.3-.7-.44-1.06l-.47-1.24-6.44-2.14v-7.18l6.44-2.15.47-1.24c.15-.36.28-.72.44-1.06l.54-1.22-3-6.07,5.08-5.07,6.06,3,1.22-.54c.34-.16.69-.3,1-.43l1.25-.47,2.15-6.45h7.18l2.15,6.45,1.25.47c.36.14.71.27,1,.43l1.22.54,6.07-3,5.07,5.08-3,6.06.54,1.22c.16.35.3.7.44,1.06l.47,1.24,6.44,2.15Zm19.64,44.12a2.81,2.81,0,1,1,2.81-2.81A2.8,2.8,0,0,1,1138.9,321.39ZM1167,298.94a5.62,5.62,0,1,1-5.62-5.62A5.62,5.62,0,0,1,1167,298.94Zm-19.65-73h28.07v11.22h-28.07Z"/></g><g class="cls-1"><path class="cls-2" d="M1697,412.13l5.57-.82,1.64,11.15-5.58.82Z"/><path class="cls-2" d="M1714.09,429.14l-3.58-4.35a17.21,17.21,0,0,1-17.23,2.53l-2.17,5.19a22.54,22.54,0,0,0,23-3.37Z"/><path class="cls-2" d="M1672.3,515.39l11.15-1.63,1.64,11.14,5.57-.81-4.91-33.45-5.57.82,2.45,16.72-11.14,1.64-4.23-28.8a8.42,8.42,0,0,1,4-8.47l21.93-13.16a14,14,0,0,0,26.61-3.9l8.4,2.13,1.39-5.45-10-2.55-.95-6.51A36.67,36.67,0,0,0,1736,406.4l-4.4-30a8.42,8.42,0,0,0,1.88-6.59l-.82-5.58a19.74,19.74,0,0,0-22.37-16.64L1679.65,352a14,14,0,0,0-10.26,7.2l-5.64.83a14.1,14.1,0,0,0-11.89,16l.82,5.57a8.43,8.43,0,0,0,6.72,7l4.17,28.38a36.67,36.67,0,0,0,27.2,30.17l1,6.51-23.35,14a14,14,0,0,0-6.68,14.12l6.68,45.52,5.57-.82Zm42-63.1a8.45,8.45,0,0,1-16.72,2.46l-1-6.59a35.39,35.39,0,0,0,16.72-2.45Zm-41-85.08a8.45,8.45,0,0,1,7.13-9.59l30.66-4.5a14.09,14.09,0,0,1,16,11.89l.82,5.57a2.82,2.82,0,0,1-2.38,3.2l-41.8,6.13a8.47,8.47,0,0,1-9.59-7.13Zm-.76,14.25a14,14,0,0,0,12,4l41.8-6.14,2.05,13.94-6,.87a11.22,11.22,0,0,0-21.51,3.16l-6.36.93a11.21,11.21,0,0,0-21.5,3.16l-6,.87L1665,388.07A14.08,14.08,0,0,0,1672.58,381.46Zm45.09,16.25a5.63,5.63,0,1,1-6.39-4.76A5.63,5.63,0,0,1,1717.67,397.71Zm-27.87,4.09a5.63,5.63,0,1,1-6.39-4.76A5.63,5.63,0,0,1,1689.8,401.8Zm-31.55-21-.82-5.58a8.47,8.47,0,0,1,7.14-9.59l2.78-.4,1.23,8.36a8.46,8.46,0,0,1-7.13,9.58A2.82,2.82,0,0,1,1658.25,380.81Zm10.89,35.41-1.23-8.36,6-.88a11.22,11.22,0,0,0,21.51-3.15l6.36-.94a11.21,11.21,0,0,0,21.5-3.15l6-.88,1.23,8.36a31,31,0,0,1-61.31,9Z"/><path class="cls-2" d="M1809.45,441.18l-5.72-39a8.47,8.47,0,0,0-9.59-7.13l-39,5.72a8.47,8.47,0,0,0-7.13,9.59l5.72,39a8.47,8.47,0,0,0,9.59,7.13l39-5.72A8.47,8.47,0,0,0,1809.45,441.18Zm-5.57.82a2.81,2.81,0,0,1-2.38,3.19l-39,5.73a2.82,2.82,0,0,1-3.19-2.38l-5.73-39a2.82,2.82,0,0,1,2.38-3.19l39-5.73a2.82,2.82,0,0,1,3.19,2.38Z"/><path class="cls-2" d="M1787.46,418.73l3.61-4.85-4.52-3.36-3.61,4.85a10.84,10.84,0,0,0-3-.77l-.88-6-5.57.82.88,6a10.82,10.82,0,0,0-2.67,1.6l-4.85-3.61-3.36,4.52,4.85,3.61a10.84,10.84,0,0,0-.77,3l-6,.88.82,5.57,6-.87a10.94,10.94,0,0,0,1.6,2.66l-3.61,4.85,4.52,3.36,3.61-4.85a10.84,10.84,0,0,0,3,.77l.88,6,5.57-.82-.88-6a10.82,10.82,0,0,0,2.67-1.6l4.85,3.61,3.36-4.52-4.85-3.61a10.75,10.75,0,0,0,.77-3l6-.88-.82-5.57-6,.88A10.82,10.82,0,0,0,1787.46,418.73Zm-7.92,12.6a5.63,5.63,0,1,1,4.75-6.39A5.62,5.62,0,0,1,1779.54,431.33Z"/><path class="cls-2" d="M1815.77,426l-2.79.41.82,5.57,2.78-.41a2.83,2.83,0,0,1,3.2,2.38l5.72,39-78,11.44-5.72-39a2.83,2.83,0,0,1,2.38-3.2l2.78-.41-.81-5.57-2.79.41a8.45,8.45,0,0,0-7.13,9.59l7.35,50.16a8.46,8.46,0,0,0,9.59,7.13l25.08-3.68.82,5.58-5.57.82.82,5.57,33.44-4.91-.82-5.57-5.57.82-.82-5.58,25.08-3.68a8.45,8.45,0,0,0,7.13-9.58l-7.36-50.17A8.46,8.46,0,0,0,1815.77,426Zm-20,77-11.14,1.64-.82-5.57,11.14-1.64Zm31.4-18.84a2.83,2.83,0,0,1-2.38,3.2L1752.3,498a2.82,2.82,0,0,1-3.19-2.38l-.82-5.57,78-11.45Z"/><path class="cls-2" d="M1759.36,468.46l5.58-.82.81,5.57-5.57.82Z"/><path class="cls-2" d="M1770.51,466.82l5.57-.82.82,5.58-5.57.81Z"/><path class="cls-2" d="M1781.66,465.19l5.57-.82.82,5.57-5.57.82Z"/><path class="cls-2" d="M1792.8,463.55l5.58-.82.82,5.58-5.58.81Z"/><path class="cls-2" d="M1804,461.91l5.58-.81.81,5.57-5.57.82Z"/></g><g class="cls-1"><path class="cls-2" d="M333.85,866,242.33,902.3a11.47,11.47,0,0,0-6.43,14.87L260,977.94a11.48,11.48,0,0,0,14.88,6.43l30.18-12a67.07,67.07,0,0,1,3.6,18.23l-7.38,2.92a2.61,2.61,0,0,0,1.93,4.86l52.16-20.68a2.61,2.61,0,1,0-1.92-4.85l-7.37,2.92a67,67,0,0,1-9.87-15.74l30.19-12a11.49,11.49,0,0,0,6.43-14.88l-24.09-60.76A11.46,11.46,0,0,0,333.85,866Zm-93.1,49.22a6.25,6.25,0,0,1,3.5-8.1l91.52-36.27a6.24,6.24,0,0,1,8.1,3.5l22,55.41L262.71,970.66Zm73,73.36a72.8,72.8,0,0,0-3.84-18.13L331.33,962A72.7,72.7,0,0,0,341,977.82ZM368,935.14h0a6.24,6.24,0,0,1-3.5,8.1l-91.52,36.28a6.25,6.25,0,0,1-8.09-3.51l-.2-.5,103.11-40.87Z"/><path class="cls-2" d="M342.78,927.7l-52.24,20.7a2.61,2.61,0,0,0,1.92,4.86l52.24-20.71a2.61,2.61,0,1,0-1.92-4.85Z"/><path class="cls-2" d="M278.46,953.19l-.39.15a2.61,2.61,0,0,0,1.93,4.85l.39-.15a2.61,2.61,0,0,0-1.93-4.85Z"/><path class="cls-2" d="M310.36,898.56l19.15,6.56L320.05,923a2.61,2.61,0,0,0,3.27,3.64,2.56,2.56,0,0,0,1.35-1.21l10.88-20.59a2.61,2.61,0,0,0-1.46-3.69l-22-7.55a2.61,2.61,0,0,0-1.69,4.94Z"/><path class="cls-2" d="M267.69,931.75l22,7.55a2.62,2.62,0,0,0,1.81,0,2.62,2.62,0,0,0-.12-4.9l-19.15-6.56,9.46-17.89a2.61,2.61,0,0,0-4.62-2.44l-10.88,20.59a2.6,2.6,0,0,0,1.46,3.69Z"/><path class="cls-2" d="M302.4,940.53a2.66,2.66,0,0,0,.8-.18,2.63,2.63,0,0,0,1.64-2.59l-2.69-42.92a2.61,2.61,0,1,0-5.21.33l2.69,42.91A2.62,2.62,0,0,0,302.4,940.53Z"/></g><g class="cls-1"><path class="cls-2" d="M1770.53,984.83a8,8,0,1,0-9.25-6.6A8,8,0,0,0,1770.53,984.83Zm-1.89-11.33a3.45,3.45,0,1,1-2.83,4A3.46,3.46,0,0,1,1768.64,973.5Z"/><path class="cls-2" d="M1872.88,1018.94l-1.52-9.06a2.3,2.3,0,0,0-2.64-1.89,2.28,2.28,0,0,1-2.64-1.89,2.3,2.3,0,0,0-2.65-1.88l-99.68,16.67a2.29,2.29,0,0,0-1.88,2.64,2.3,2.3,0,0,1-1.89,2.64,2.31,2.31,0,0,0-1.89,2.65l1.52,9.06a2.3,2.3,0,1,0,4.53-.76l-1.21-7.21a6.88,6.88,0,0,0,3.43-4.8l96-16a6.89,6.89,0,0,0,4.8,3.42l1.21,7.22a2.3,2.3,0,0,0,4.53-.76Z"/><path class="cls-2" d="M1742.23,1017.5l2.26-.38,3.79,22.65a2.3,2.3,0,1,0,4.53-.75l-3.79-22.66,126.87-21.21,3.79,22.65a2.3,2.3,0,1,0,4.53-.75l-3.79-22.66,2.26-.38a2.29,2.29,0,0,0,1.89-2.64l-1.52-9.06a2.28,2.28,0,0,0-2.64-1.89l-2.27.38-2.27-13.59A16.1,16.1,0,0,0,1857.36,954h0l-6.79,1.14-.62-3.68a27.54,27.54,0,0,0,9.66-25.77h0l-3.41-20.4a13.77,13.77,0,0,0-13.56-11.49l-1.17-7a2.29,2.29,0,0,0-2.65-1.89l-18.12,3h0a23,23,0,0,0-18.84,26.43l3.41,20.39A27.58,27.58,0,0,0,1822.77,956l.61,3.68-6.79,1.13h0a16.1,16.1,0,0,0-13.2,18.51l.76,4.54-2.27.38-5.3-31.72a6.89,6.89,0,0,0-7.93-5.66l-47.58,8a6.9,6.9,0,0,0-5.66,7.93l6.44,38.51a7.09,7.09,0,0,0,.8,2.19l-2.69.45a2.29,2.29,0,0,0-1.88,2.64l1.51,9.06A2.29,2.29,0,0,0,1742.23,1017.5Zm79.23-125h0l15.83-2.65,1.14,6.79a2.29,2.29,0,0,0,2.65,1.89,9.2,9.2,0,0,1,10.57,7.55l1,5.86-3.42-2.44s-.07,0-.11-.05a2.39,2.39,0,0,0-.43-.2,1.47,1.47,0,0,0-.83-.14,2.12,2.12,0,0,0-.44,0,2.58,2.58,0,0,0-.39.14,2.49,2.49,0,0,0-.43.22s-.07,0-.11,0a41.15,41.15,0,0,1-16.34,7.11,41.59,41.59,0,0,1-17.76-1.41.5.5,0,0,1-.12,0,2.42,2.42,0,0,0-.47-.06,1.35,1.35,0,0,0-.83.11,2.1,2.1,0,0,0-.42.15,2.6,2.6,0,0,0-.33.25,2.69,2.69,0,0,0-.35.33.73.73,0,0,1-.09.08l-2.44,3.42-1-5.86a18.4,18.4,0,0,1,15.1-21.15ZM1809.77,934l-1.35-8.13,4.15-5.83a41.07,41.07,0,0,0,35.33-5.91l5.82,4.16,1.36,8.13a23,23,0,0,1-45.31,7.58Zm27.2,23.39a27.43,27.43,0,0,0,8.8-3.1l.49,2.92-2.4,3.35-5.77-.91c-.09,0-.17,0-.25,0a2.57,2.57,0,0,0-.48,0,2.44,2.44,0,0,0-.46.14,2.17,2.17,0,0,0-.24.07l-5.17,2.74-3.36-2.39-.48-2.92a27.48,27.48,0,0,0,9.32.07Zm-29.06,21.16a11.49,11.49,0,0,1,9.43-13.22l8.13-1.35,4.51,3.21a.59.59,0,0,0,.14.06,2.17,2.17,0,0,0,.54.24l.23.08a2.38,2.38,0,0,0,.8,0,2.33,2.33,0,0,0,.7-.24l5.74-3,6.42,1a2.29,2.29,0,0,0,.74,0,2.33,2.33,0,0,0,.75-.27l.19-.15a2.14,2.14,0,0,0,.44-.41s.08-.06.11-.1l3.22-4.51,8.12-1.36a11.5,11.5,0,0,1,13.22,9.43l2.27,13.6-48,8a6.68,6.68,0,0,0,0-2.32l-.75-4.54a2.3,2.3,0,0,0-2.65-1.88l-13.59,2.27Zm12.84,7.18.38,2.26a2.29,2.29,0,0,1-1.84,2.63L1803,993.37a6.87,6.87,0,0,0,0-2.31v0l-.38-2.26Zm-78.93-26.39,47.58-8a2.3,2.3,0,0,1,2.64,1.89l5.68,34h0l.76,4.51h0a2.3,2.3,0,0,1-1.84,2.63l-47.64,8a2.29,2.29,0,0,1-2.63-1.88L1739.94,962a2.29,2.29,0,0,1,1.88-2.64Zm1.16,48.7,4.51-.76h0l47.55-8h0l24.92-4.17.09,0,56.5-9.44h.05l0,0,2.22-.37.76,4.53-135.93,22.73Z"/><path class="cls-2" d="M1841.59,984.58a2.3,2.3,0,0,0-.76-4.53h0a2.29,2.29,0,1,0,.78,4.52Z"/><path class="cls-2" d="M1840.07,975.52a2.3,2.3,0,1,0-.76-4.53h0a2.3,2.3,0,0,0,.78,4.53Z"/><path class="cls-2" d="M1761.5,944.29l2,1.43a2.29,2.29,0,0,0,3.2-.53l1.73-2.42a26.44,26.44,0,1,0-6.94,1.52Zm-5.74-47.82a21.81,21.81,0,0,1,10.51,42.19,2.35,2.35,0,0,0-1.15.84l-.81,1.15-.84-.6a2.3,2.3,0,0,0-1.6-.41,21.81,21.81,0,0,1-6.11-43.17Z"/><path class="cls-2" d="M1768,924a2.29,2.29,0,0,0,3.2-.53l4.69-6.58,0,0a2.25,2.25,0,0,0,.39-1.71,2.31,2.31,0,0,0-.93-1.5h0l-6.58-4.7a2.3,2.3,0,0,0-2.67,3.74l4.74,3.38-3.38,4.74a2.28,2.28,0,0,0,.54,3.2Z"/><path class="cls-2" d="M1749.9,927a2.27,2.27,0,0,0,1.71.4,2.35,2.35,0,0,0,1.5-.93,2.31,2.31,0,0,0-.54-3.21l-4.74-3.38,3.38-4.74a2.29,2.29,0,1,0-3.74-2.66l-4.69,6.58,0,0a2.31,2.31,0,0,0,.53,3.22h0Z"/><path class="cls-2" d="M1757.3,931a2.32,2.32,0,0,0,2.63-1.91l3.38-21.54a2.3,2.3,0,1,0-4.54-.71l-3.38,21.53a2.3,2.3,0,0,0,1.91,2.63Z"/></g><g class="cls-1"><path class="cls-2" d="M555.1,143.61,439.29,121.74a9.09,9.09,0,0,0-10.6,7.23l-13.87,73.5a2.26,2.26,0,0,0,1.8,2.65l129.19,24.39a2.26,2.26,0,0,0,2.64-1.81l13.88-73.5A9.07,9.07,0,0,0,555.1,143.61Zm-10.68,81L419.69,201.08l13.46-71.27a4.54,4.54,0,0,1,5.3-3.62l115.81,21.87a4.55,4.55,0,0,1,3.62,5.3Z"/><path class="cls-2" d="M546.65,225.05,417.46,200.66a2.26,2.26,0,0,0-2.64,1.81l-2.11,11.13a9.09,9.09,0,0,0,7.23,10.6l115.82,21.86a9.07,9.07,0,0,0,10.59-7.22l2.1-11.14A2.26,2.26,0,0,0,546.65,225.05ZM541.9,238a4.55,4.55,0,0,1-5.3,3.61L420.78,219.74a4.54,4.54,0,0,1-3.61-5.3l1.68-8.9,124.73,23.55L541.9,238Z"/><path class="cls-2" d="M487.06,223l-13.37-2.52a2.26,2.26,0,1,0-.84,4.45l13.36,2.52a2.27,2.27,0,1,0,.85-4.45Z"/><path class="cls-2" d="M551.2,152.1l-111.37-21a2.28,2.28,0,0,0-2.65,1.81l-13.45,71.27a2.26,2.26,0,0,0,1.8,2.65l111.37,21a2.28,2.28,0,0,0,2.65-1.81L553,154.75A2.26,2.26,0,0,0,551.2,152.1ZM535.51,223,428.6,202.76l12.62-66.82,106.91,20.19L535.51,223Z"/><path class="cls-2" d="M504.28,254,446.37,243a6.8,6.8,0,1,0-2.52,13.36l57.91,10.94A6.8,6.8,0,0,0,504.28,254Zm-1.68,8.91-57.91-10.93a2.27,2.27,0,0,1,.84-4.46l57.91,10.94a2.26,2.26,0,1,1-.84,4.45Z"/><path class="cls-2" d="M499.83,253.12c-7.39-1.39-10.15-7.35-8.2-17.69a2.26,2.26,0,0,0-1.8-2.65l-22.27-4.21a2.27,2.27,0,0,0-2.65,1.81c-2,10.35-6.69,14.88-14.08,13.49a2.26,2.26,0,1,0-.84,4.45l49,9.26a2.27,2.27,0,0,0,.84-4.46Zm-38.15-7.2c3.31-2.52,5.78-6.74,7.2-12.48l17.94,3.38c-.77,5.87,0,10.7,2.16,14.25Z"/><path class="cls-2" d="M524.42,205.78l-4.37-6.39,3.56-2.43a2.26,2.26,0,0,0-.23-3.88l-21-10.89a2.27,2.27,0,0,0-3.3,2.25L501.55,208a2.23,2.23,0,0,0,1.3,1.82,2.28,2.28,0,0,0,2.23-.18l3.74-2.56,4.36,6.4a2.33,2.33,0,0,0,1.45,1,2.27,2.27,0,0,0,1.7-.36l7.49-5.11A2.27,2.27,0,0,0,524.42,205.78ZM515.65,209l-4-5.82a3,3,0,0,0-4.11-.78l-1.91,1.3L504,188.15l13.9,7.2-2,1.4a2.58,2.58,0,0,0-1.07,1.65,2.51,2.51,0,0,0,.4,1.92l4.19,6.14Z"/><path class="cls-2" d="M520.56,155.54,458.2,143.76a2.27,2.27,0,0,0-2.65,1.81l-2.11,11.14a2.26,2.26,0,0,0,1.81,2.64l62.37,11.78a2.26,2.26,0,0,0,2.64-1.81l2.11-11.13A2.27,2.27,0,0,0,520.56,155.54Zm-4.33,10.72-57.91-10.94,1.26-6.68,57.91,10.93Z"/><path class="cls-2" d="M480.3,173.31,462.48,170a2.26,2.26,0,0,0-2.65,1.8l-1.68,8.91a2.27,2.27,0,0,0,1.8,2.65l17.82,3.36a2.26,2.26,0,0,0,2.65-1.8L482.1,176A2.26,2.26,0,0,0,480.3,173.31Zm-3.91,8.49L463,179.28l.84-4.46,13.37,2.53Z"/><path class="cls-2" d="M520.56,155.54,458.2,143.76a2.27,2.27,0,0,0-2.65,1.81l-8,42.32a2.26,2.26,0,0,0,1.8,2.65l53,10a2.27,2.27,0,0,0,2.67-2.47l-1-9.93,8.85,4.59a2.27,2.27,0,0,0,3.27-1.59l6.23-33A2.27,2.27,0,0,0,520.56,155.54Zm-8.31,31.77-9.89-5.12a2.26,2.26,0,0,0-3.29,2.25l1.16,11.09-47.8-9,7.15-37.86,57.91,10.93Z"/></g><g class="cls-1"><path class="cls-2" d="M1522.32,915.39l-2.42-.42,8.86-50.93a12.31,12.31,0,0,0-10-14.23l-101.85-17.72a12.31,12.31,0,0,0-14.23,10l-6.33,36.38-2.43-.42a7.38,7.38,0,0,0-8.54,6l-11,63a7.38,7.38,0,0,0,6,8.54l92.15,16a2.46,2.46,0,0,0,2.85-2,12.33,12.33,0,0,0-10-14.23l-7.27-1.27,2.53-14.55,29.1,5.06-3.8,21.83a7.38,7.38,0,0,0,6,8.54l19.4,3.38a7.39,7.39,0,0,0,8.54-6l8.44-48.51A7.39,7.39,0,0,0,1522.32,915.39Zm-94.58,41a2.45,2.45,0,0,1-2.85,2l-43.65-7.59a2.45,2.45,0,0,1-2-2.85l.42-2.42,48.5,8.44Zm1.27-7.27-48.51-8.44,9.71-55.78a2.45,2.45,0,0,1,2.85-2l43.65,7.59a2.46,2.46,0,0,1,2,2.85Zm35.53,11.18a7.39,7.39,0,0,1,6,6l-38.83-6.76a7.27,7.27,0,0,0,.87-2.34l.42-2.43ZM1433.86,950l2.53-14.55,4.85.84-2.53,14.55Zm9.7,1.69,2.53-14.55,9.7,1.69-2.53,14.55Zm47-11.81-53.35-9.28,2.53-14.55,53.36,9.28Zm3.8-21.82-.42,2.42-53.35-9.28,3-17a7.29,7.29,0,0,0-.25-3.44s.09,0,.13-.06l28.19-19.83a2.47,2.47,0,0,0-2.84-4l-28.18,19.83c-.07.05-.11.13-.17.18a7.42,7.42,0,0,0-2.89-1.19l-36.37-6.33,6.33-36.37a7.38,7.38,0,0,1,8.54-6l101.85,17.72a7.38,7.38,0,0,1,6,8.54l-8.86,50.93L1502.92,912A7.38,7.38,0,0,0,1494.38,918ZM1515,971.59a2.46,2.46,0,0,1-2.84,2l-19.4-3.38a2.47,2.47,0,0,1-2-2.85l.42-2.42,24.26,4.22Zm1.27-7.27-24.25-4.22,7.17-41.23a2.46,2.46,0,0,1,2.85-2l19.4,3.37a2.46,2.46,0,0,1,2,2.85Z"/><path class="cls-2" d="M1410.47,911.35a2.47,2.47,0,0,0-3.43-.6l-12.08,8.5a2.46,2.46,0,1,0,2.76,4.08l.07-.05,12.08-8.5C1410.43,914.1,1409.81,912.53,1410.47,911.35Z"/><path class="cls-2" d="M1425,913.87a2.46,2.46,0,0,0-3.37-.58l-12.08,8.49a2.46,2.46,0,0,0,2.76,4.08l.07-.05,12.08-8.5A2.46,2.46,0,0,0,1425,913.87Z"/><path class="cls-2" d="M1487,870a2.46,2.46,0,0,0-3.37-.58l-28.19,19.83a2.46,2.46,0,1,0,2.76,4.07l.07,0,28.19-19.84A2.46,2.46,0,0,0,1487,870Z"/><path class="cls-2" d="M1514,936.12a2.46,2.46,0,0,0-3.37-.58l-8,5.66a2.46,2.46,0,0,0,2.76,4.08l.07,0,8.05-5.67A2.46,2.46,0,0,0,1514,936.12Z"/><path class="cls-2" d="M1453.52,923.41h0a2.46,2.46,0,1,0,2,2.85A2.44,2.44,0,0,0,1453.49,923.41Z"/><path class="cls-2" d="M1471,851.49l-9.7-1.69a2.46,2.46,0,1,0-.84,4.85l9.7,1.69a2.46,2.46,0,0,0,.84-4.85Z"/></g><g class="cls-1"><path class="cls-2" d="M80.6,760.18a8,8,0,1,0-8-8A8,8,0,0,0,80.6,760.18Zm0-11.48a3.45,3.45,0,1,1-3.44,3.44A3.45,3.45,0,0,1,80.6,748.7Z"/><path class="cls-2" d="M175.92,810.7v-9.18a2.29,2.29,0,0,0-2.3-2.3,2.3,2.3,0,0,1-2.29-2.3,2.29,2.29,0,0,0-2.3-2.29H68a2.29,2.29,0,0,0-2.3,2.29,2.3,2.3,0,0,1-2.3,2.3,2.29,2.29,0,0,0-2.29,2.3v9.18a2.3,2.3,0,1,0,4.59,0v-7.31a6.89,6.89,0,0,0,4.17-4.17h97.32a6.84,6.84,0,0,0,4.17,4.17v7.31a2.3,2.3,0,1,0,4.59,0Z"/><path class="cls-2" d="M47.3,787.73h2.29v23a2.3,2.3,0,0,0,4.6,0v-23H182.81v23a2.3,2.3,0,1,0,4.6,0v-23h2.29a2.29,2.29,0,0,0,2.3-2.29v-9.19a2.3,2.3,0,0,0-2.3-2.3h-2.29V760.17a16.11,16.11,0,0,0-16.08-16.08h-6.89v-3.73a27.56,27.56,0,0,0,13.78-23.83h0V695.86a13.8,13.8,0,0,0-11.49-13.58v-7.09a2.29,2.29,0,0,0-2.29-2.3H146a23,23,0,0,0-22.94,23v20.68a27.57,27.57,0,0,0,13.78,23.83v3.73H130a16.1,16.1,0,0,0-16.07,16.08v4.6h-2.3V732.62a6.9,6.9,0,0,0-6.89-6.89H56.49a6.9,6.9,0,0,0-6.89,6.89v39A6.69,6.69,0,0,0,50,774H47.3a2.3,2.3,0,0,0-2.3,2.3v9.19A2.29,2.29,0,0,0,47.3,787.73Zm98.76-110.24h16.08v6.89a2.29,2.29,0,0,0,2.3,2.3,9.19,9.19,0,0,1,9.18,9.19v5.94l-3-3a1.05,1.05,0,0,1-.11-.07,2,2,0,0,0-.39-.26,2.75,2.75,0,0,0-.38-.2c-.13,0-.27,0-.41-.08a2.28,2.28,0,0,0-.45,0,1.77,1.77,0,0,0-.4.08,1.53,1.53,0,0,0-.46.14l-.12,0a41.15,41.15,0,0,1-17.28,4.32,41.57,41.57,0,0,1-17.29-4.32l-.12,0a2.32,2.32,0,0,0-.45-.13,2.1,2.1,0,0,0-.42-.09,3,3,0,0,0-.42.05,2.14,2.14,0,0,0-.44.08,2.53,2.53,0,0,0-.36.2,2.11,2.11,0,0,0-.4.26l-.1.07-3,3v-5.94a18.39,18.39,0,0,1,18.37-18.37Zm-18.37,39v-8.25l5.06-5.06a45.24,45.24,0,0,0,17.91,4.11,45.18,45.18,0,0,0,17.9-4.11l5.06,5.06v8.25a23,23,0,0,1-45.93,0Zm23,27.55a27.37,27.37,0,0,0,9.18-1.6v3l-2.91,2.92-5.55-1.85a1.9,1.9,0,0,0-.25,0,1.84,1.84,0,0,0-.47-.06,2.52,2.52,0,0,0-.48.06,2.42,2.42,0,0,0-.25,0l-5.54,1.85-2.92-2.92v-3a27.43,27.43,0,0,0,9.19,1.6ZM118.5,760.17A11.49,11.49,0,0,1,130,748.69h8.24l3.92,3.92a.91.91,0,0,0,.13.08,2.34,2.34,0,0,0,.49.33l.22.11a2.19,2.19,0,0,0,1.51,0l6.17-2,6.16,2a2.33,2.33,0,0,0,.73.12,2.3,2.3,0,0,0,.78-.15l.22-.11a2.41,2.41,0,0,0,.5-.33s.09-.05.12-.08l3.92-3.92h8.24a11.49,11.49,0,0,1,11.48,11.48V774H134.16a6.93,6.93,0,0,0,.42-2.28v-4.6a2.3,2.3,0,0,0-2.3-2.3H118.5Zm11.48,9.2v2.3a2.28,2.28,0,0,1-2.25,2.28H111.19a6.82,6.82,0,0,0,.42-2.27v-2.31Zm-73.49-39h48.23a2.3,2.3,0,0,1,2.3,2.3v34.44h0v4.59a2.29,2.29,0,0,1-2.26,2.28H56.46a2.29,2.29,0,0,1-2.27-2.29v-39a2.3,2.3,0,0,1,2.3-2.3Zm-6.9,48.23H187.41v4.59H49.59Z"/><path class="cls-2" d="M150.73,771.66a2.3,2.3,0,0,0,0-4.6h0a2.28,2.28,0,0,0-2.28,2.3,2.31,2.31,0,0,0,2.31,2.3Z"/><path class="cls-2" d="M150.73,762.47a2.3,2.3,0,0,0,0-4.59h0a2.27,2.27,0,0,0-2.28,2.29,2.31,2.31,0,0,0,2.31,2.3Z"/><path class="cls-2" d="M78.38,718.71l1.75,1.74a2.27,2.27,0,0,0,3.24,0l2.11-2.1a26.41,26.41,0,1,0-7.1.36Zm2.22-48.12A21.81,21.81,0,0,1,84,713.94a2.31,2.31,0,0,0-1.27.64l-1,1-.73-.73a2.31,2.31,0,0,0-1.51-.67,21.81,21.81,0,0,1,1.09-43.59Z"/><path class="cls-2" d="M88.17,699.75a2.27,2.27,0,0,0,3.24,0L97.13,694l0,0a2.32,2.32,0,0,0,0-3.26l0,0L91.41,685a2.29,2.29,0,1,0-3.24,3.24l4.11,4.12-4.11,4.11a2.29,2.29,0,0,0,0,3.25Z"/><path class="cls-2" d="M69.79,699.75A2.3,2.3,0,0,0,73,696.5l-4.12-4.11L73,688.27A2.29,2.29,0,0,0,69.79,685l-5.71,5.71,0,0a2.29,2.29,0,0,0,0,3.26l0,0Z"/><path class="cls-2" d="M76.43,704.9a2.3,2.3,0,0,0,2.91-1.45l6.89-20.68a2.3,2.3,0,1,0-4.36-1.45L75,702a2.29,2.29,0,0,0,1.45,2.9Z"/></g><g class="cls-1"><path class="cls-2" d="M1029.4,930.15l5.62-.42.83,11.23-5.62.42Z"/><path class="cls-2" d="M1045.22,948.33l-3.25-4.59A17.22,17.22,0,0,1,1024.6,945l-2.54,5a22.53,22.53,0,0,0,23.16-1.73Z"/><path class="cls-2" d="M997.4,1031.39l11.23-.84.84,11.23,5.62-.41-2.52-33.71-5.61.42,1.25,16.85-11.23.84-2.17-29a8.43,8.43,0,0,1,4.61-8.16L1022.23,977a14,14,0,0,0,26.82-2l8.23,2.73,1.77-5.35-9.8-3.25-.49-6.56a36.67,36.67,0,0,0,20-35.37l-2.25-30.28a8.42,8.42,0,0,0,2.34-6.45l-.42-5.62a19.73,19.73,0,0,0-21.12-18.19l-30.9,2.3a14,14,0,0,0-10.75,6.45l-5.69.42a14.11,14.11,0,0,0-13,15.09l.42,5.62a8.43,8.43,0,0,0,6.21,7.49l2.13,28.61a36.66,36.66,0,0,0,25,32l.49,6.56-24.29,12.31a14.05,14.05,0,0,0-7.67,13.61l3.41,45.88,5.62-.42Zm46.37-60a8.45,8.45,0,1,1-16.85,1.26l-.5-6.64a35.32,35.32,0,0,0,16.86-1.26ZM1009,883.65a8.47,8.47,0,0,1,7.8-9.06l30.89-2.3a14.1,14.1,0,0,1,15.09,13l.42,5.62a2.82,2.82,0,0,1-2.6,3l-42.13,3.14a8.46,8.46,0,0,1-9.05-7.8Zm-1.77,14.17a14,14,0,0,0,11.66,4.86l42.13-3.13,1,14-6,.45a11.21,11.21,0,0,0-21.67,1.61l-6.42.48a11.21,11.21,0,0,0-21.67,1.61l-6,.45-1.06-14.33A14.1,14.1,0,0,0,1007.22,897.82ZM1051,917.24a5.63,5.63,0,1,1-6-5.2A5.63,5.63,0,0,1,1051,917.24Zm-28.09,2.09a5.63,5.63,0,1,1-6-5.2A5.62,5.62,0,0,1,1022.94,919.33Zm-30-23.19-.42-5.62a8.46,8.46,0,0,1,7.8-9l2.81-.21.63,8.43a8.46,8.46,0,0,1-7.8,9A2.83,2.83,0,0,1,993,896.14Zm8.34,36.1-.63-8.43,6-.45a11.21,11.21,0,0,0,21.67-1.61l6.42-.48a11.21,11.21,0,0,0,21.67-1.61l6-.45.62,8.42a31,31,0,0,1-61.79,4.61Z"/><path class="cls-2" d="M1139.48,967.14l-2.93-39.33a8.46,8.46,0,0,0-9-7.8l-39.33,2.93a8.45,8.45,0,0,0-7.79,9.06l2.92,39.32a8.47,8.47,0,0,0,9.06,7.8l39.32-2.93A8.46,8.46,0,0,0,1139.48,967.14Zm-5.62.42a2.8,2.8,0,0,1-2.6,3l-39.32,2.93a2.82,2.82,0,0,1-3-2.6L1086,931.58a2.83,2.83,0,0,1,2.6-3l39.33-2.93a2.83,2.83,0,0,1,3,2.6Z"/><path class="cls-2" d="M1119.15,943.18l3.94-4.58-4.27-3.68-3.94,4.58a11.25,11.25,0,0,0-3-1l-.45-6-5.62.42.45,6a11.13,11.13,0,0,0-2.77,1.41l-4.58-4-3.67,4.27,4.57,3.94a11.44,11.44,0,0,0-1,3l-6,.44.41,5.62,6-.45a11.2,11.2,0,0,0,1.41,2.78l-3.94,4.57,4.26,3.68,4-4.58a10.56,10.56,0,0,0,3,1l.45,6,5.61-.42-.44-6a11.27,11.27,0,0,0,2.77-1.4l4.58,3.94,3.67-4.27-4.58-3.94a10.67,10.67,0,0,0,1-2.95l6-.45-.42-5.62-6,.45A11.13,11.13,0,0,0,1119.15,943.18Zm-8.8,12a5.63,5.63,0,1,1,5.2-6A5.62,5.62,0,0,1,1110.35,955.18Z"/><path class="cls-2" d="M1146.86,952.47l-2.81.2.42,5.62,2.81-.21a2.83,2.83,0,0,1,3,2.6l2.93,39.33-78.65,5.85-2.93-39.32a2.83,2.83,0,0,1,2.6-3l2.81-.21-.42-5.61-2.81.2A8.47,8.47,0,0,0,1066,967l3.77,50.56a8.46,8.46,0,0,0,9,7.8l25.28-1.88.42,5.61-5.62.42.42,5.62,33.71-2.51-.42-5.62-5.62.42-.42-5.62,25.28-1.88a8.45,8.45,0,0,0,7.8-9.06l-3.76-50.56A8.45,8.45,0,0,0,1146.86,952.47Zm-25.46,75.33-11.23.83-.42-5.61,11.24-.84Zm32.67-16.56a2.83,2.83,0,0,1-2.6,3l-73,5.44a2.81,2.81,0,0,1-3-2.6l-.42-5.62,78.65-5.86Z"/><path class="cls-2" d="M1087.58,990.77l5.62-.41.41,5.61-5.61.42Z"/><path class="cls-2" d="M1098.81,989.94l5.62-.42.42,5.62-5.62.42Z"/><path class="cls-2" d="M1110.05,989.1l5.62-.42.42,5.62-5.62.42Z"/><path class="cls-2" d="M1121.28,988.26l5.62-.41.42,5.61-5.62.42Z"/><path class="cls-2" d="M1132.52,987.43l5.62-.42.42,5.62-5.62.41Z"/></g><g class="cls-1"><path class="cls-2" d="M733.17,865.87,618.86,837.16a9.08,9.08,0,0,0-11,6.58l-18.22,72.55a2.27,2.27,0,0,0,1.65,2.75l127.5,32a2.26,2.26,0,0,0,2.75-1.64l18.23-72.55A9.09,9.09,0,0,0,733.17,865.87Zm-15.48,80.25L594.58,915.19l17.67-70.34a4.54,4.54,0,0,1,5.5-3.3l114.31,28.72a4.53,4.53,0,0,1,3.3,5.5Z"/><path class="cls-2" d="M719.89,946.67l-127.51-32a2.27,2.27,0,0,0-2.75,1.65l-2.76,11a9.08,9.08,0,0,0,6.59,11L707.77,967a9.06,9.06,0,0,0,11-6.58l2.76-11A2.26,2.26,0,0,0,719.89,946.67Zm-5.51,12.63a4.55,4.55,0,0,1-5.51,3.3L594.56,933.89a4.55,4.55,0,0,1-3.29-5.51l2.21-8.79,123.11,30.92-2.21,8.79Z"/><path class="cls-2" d="M660.52,941.11l-13.19-3.32a2.27,2.27,0,0,0-1.1,4.4l13.19,3.31a2.26,2.26,0,1,0,1.1-4.39Z"/><path class="cls-2" d="M728.76,874.11,618.85,846.5a2.29,2.29,0,0,0-2.76,1.65L598.42,918.5a2.28,2.28,0,0,0,1.65,2.75L710,948.86a2.28,2.28,0,0,0,2.75-1.65l17.67-70.35A2.26,2.26,0,0,0,728.76,874.11Zm-19.86,69.8L603.37,917.4l16.57-65.95L725.46,878,708.9,943.91Z"/><path class="cls-2" d="M675.88,973l-57.16-14.36a6.8,6.8,0,0,0-3.31,13.19l57.16,14.36A6.8,6.8,0,1,0,675.88,973Zm-2.21,8.79-57.16-14.36a2.26,2.26,0,0,1,1.11-4.39l57.15,14.35a2.27,2.27,0,1,1-1.1,4.4Z"/><path class="cls-2" d="M671.48,971.9c-7.29-1.83-9.69-7.93-7.12-18.15a2.28,2.28,0,0,0-1.65-2.75l-22-5.52a2.26,2.26,0,0,0-2.75,1.65c-2.57,10.21-7.57,14.46-14.86,12.63a2.26,2.26,0,0,0-1.11,4.39l48.37,12.15a2.27,2.27,0,1,0,1.1-4.4Zm-37.65-9.46c3.46-2.31,6.17-6.38,7.93-12l17.71,4.44c-1.12,5.81-.65,10.68,1.31,14.35Z"/><path class="cls-2" d="M698.84,926.11l-4-6.64,3.69-2.21a2.28,2.28,0,0,0,0-3.9l-20.33-12.11a2.26,2.26,0,0,0-3.42,2l1.07,23.64a2.27,2.27,0,0,0,3.43,1.84l3.89-2.33,4,6.64a2.25,2.25,0,0,0,3.11.78l7.78-4.66A2.26,2.26,0,0,0,698.84,926.11Zm-8.94,2.71-3.62-6.05a3,3,0,0,0-4.06-1l-2,1.19-.71-15.64,13.45,8-2.13,1.28a2.55,2.55,0,0,0-1.17,1.57,2.52,2.52,0,0,0,.29,2l3.82,6.38Z"/><path class="cls-2" d="M698,875.73l-61.56-15.46a2.27,2.27,0,0,0-2.75,1.64l-2.76,11a2.26,2.26,0,0,0,1.65,2.75l61.55,15.47a2.28,2.28,0,0,0,2.75-1.65l2.76-11A2.26,2.26,0,0,0,698,875.73Zm-5,10.44-57.16-14.36,1.66-6.6,57.15,14.36Z"/><path class="cls-2" d="M656.73,891.07l-17.59-4.41a2.27,2.27,0,0,0-2.75,1.64l-2.21,8.8a2.27,2.27,0,0,0,1.65,2.75l17.59,4.41a2.27,2.27,0,0,0,2.75-1.64l2.2-8.8A2.27,2.27,0,0,0,656.73,891.07Zm-4.41,8.25L639.13,896l1.11-4.39,13.19,3.31Z"/><path class="cls-2" d="M698,875.73l-61.56-15.46a2.27,2.27,0,0,0-2.75,1.64l-10.49,41.77a2.27,2.27,0,0,0,1.65,2.75l52.33,13.15a2.28,2.28,0,0,0,2.82-2.31l-.45-10,8.56,5.1a2.26,2.26,0,0,0,3.36-1.39l8.17-32.53A2.26,2.26,0,0,0,698,875.73ZM687.8,907l-9.57-5.7a2.27,2.27,0,0,0-2.33,0,2.29,2.29,0,0,0-1.1,2l.51,11.14-47.18-11.85,9.39-37.38,57.15,14.36Z"/></g><g class="cls-1"><path class="cls-2" d="M1562,730.65a14,14,0,1,0,14,14A14,14,0,0,0,1562,730.65Zm0,22.45a8.42,8.42,0,1,1,8.42-8.42A8.43,8.43,0,0,1,1562,753.1Z"/><path class="cls-2" d="M1559.19,635.23h22.46v5.61h-22.46Z"/><path class="cls-2" d="M1559.19,646.45h22.46v5.61h-22.46Z"/><path class="cls-2" d="M1542.35,657.68h39.3v5.61h-39.3Z"/><path class="cls-2" d="M1542.35,668.9h39.3v5.62h-39.3Z"/><path class="cls-2" d="M1542.35,680.13h39.3v5.61h-39.3Z"/><path class="cls-2" d="M1649,713.81V691.35h-39.29v22.46h16.84v28.06h-33.68V737l-6.89-2.3,3.25-6.49-10.8-10.8-6.5,3.25-2.29-6.89h-4.83V697h28.06V663.29h33.68V679l-6.44-6.44-4,4,13.21,13.21,13.21-13.21-4-4-6.44,6.44V657.68h-39.29V624h-43.26l-18.48,18.48v15.2h-39.29V679l-6.44-6.44-4,4,13.21,13.21,13.21-13.21-4-4-6.44,6.44V663.29h33.68V697h28.06v16.84h-4.83l-2.29,6.89-6.5-3.25-10.8,10.8,3.25,6.49-6.89,2.3v4.83h-33.68V713.81h16.84V691.35H1475v22.46h16.84v45.3a11.23,11.23,0,1,0,5.61,0V747.48h16.84v34.2a8.43,8.43,0,1,0,5.61,0v-34.2h11.23v4.83l6.89,2.3-3.25,6.5,10.8,10.8,6.5-3.25,2.29,6.89h15.27l2.3-6.89,6.5,3.25,10.8-10.8-3.25-6.5,6.89-2.3v-4.83h11.23v34.2a8.42,8.42,0,1,0,5.61,0v-34.2h16.84v11.63a11.23,11.23,0,1,0,5.61,0v-45.3Zm-101-80.23v7.26h-7.26Zm-11.23,12.87h16.84V629.61h33.68v61.74h-50.52ZM1480.61,697h28.07v11.22h-28.07Zm19.65,73a5.62,5.62,0,1,1-5.61-5.62A5.62,5.62,0,0,1,1500.26,769.94Zm16.84,22.45a2.81,2.81,0,1,1,2.8-2.81A2.81,2.81,0,0,1,1517.1,792.39Zm70.16-44.12-6.44,2.14-.47,1.24c-.15.36-.28.72-.44,1.06l-.54,1.22,3,6.07-5.08,5.07-6.06-3-1.22.54c-.34.16-.69.3-1,.44l-1.25.47-2.15,6.45h-7.18l-2.15-6.45L1555,763c-.36-.14-.71-.28-1-.44l-1.22-.54-6.07,3L1541.6,760l3-6.07-.54-1.22c-.16-.35-.3-.7-.44-1.06l-.47-1.24-6.44-2.14v-7.18l6.44-2.15.47-1.24c.15-.36.28-.72.44-1.06l.54-1.22-3-6.07,5.08-5.07,6.06,3,1.22-.54c.34-.16.69-.3,1-.43l1.25-.47,2.15-6.45h7.18l2.15,6.45,1.25.47c.36.14.71.27,1,.43l1.22.54,6.07-3,5.07,5.08-3,6.06.54,1.22c.16.35.3.7.44,1.06l.47,1.24,6.44,2.15Zm19.64,44.12a2.81,2.81,0,1,1,2.81-2.81A2.8,2.8,0,0,1,1606.9,792.39ZM1635,769.94a5.62,5.62,0,1,1-5.62-5.62A5.62,5.62,0,0,1,1635,769.94Zm-19.65-73h28.07v11.22h-28.07Z"/></g><g class="cls-1"><path class="cls-2" d="M386,676.57a5.8,5.8,0,1,0,4.59,6.8A5.8,5.8,0,0,0,386,676.57Zm-1.46,7.5a1.84,1.84,0,1,1,2.17-1.46A1.85,1.85,0,0,1,384.52,684.07Z"/><path class="cls-2" d="M400.47,679.39a5.8,5.8,0,1,0,4.58,6.8A5.8,5.8,0,0,0,400.47,679.39Zm-1.46,7.5a1.84,1.84,0,1,1,2.16-1.46A1.84,1.84,0,0,1,399,686.89Z"/><path class="cls-2" d="M415,682.21a5.8,5.8,0,1,0,4.58,6.8A5.81,5.81,0,0,0,415,682.21Zm-1.46,7.5a1.84,1.84,0,1,1,2.16-1.46A1.84,1.84,0,0,1,413.5,689.71Z"/><path class="cls-2" d="M496.08,730a2,2,0,0,0,2.32-1.56L504,700.68a8.69,8.69,0,0,0-6.87-10.19L381.67,668a8.72,8.72,0,0,0-10.2,6.87L353.2,768.69a8.7,8.7,0,0,0,5.59,9.84,7.8,7.8,0,0,0,1.28.35l37.73,7.35-1.36,7-5.85-1.14a7.21,7.21,0,0,0-8.46,5.7l-.82,4.19a3.3,3.3,0,0,0,2.6,3.86l9.25,1.8a2,2,0,0,0,.75-3.88l-8.6-1.67.69-3.55a3.28,3.28,0,0,1,3.83-2.58l51.52,10a3.26,3.26,0,0,1,2.58,3.83l-.69,3.54L406,806.07a2,2,0,1,0-.76,3.87l37.94,7.4a3.3,3.3,0,0,0,3.86-2.61l.82-4.19a7.23,7.23,0,0,0-5.7-8.46l-5.86-1.14,1.36-7,37.73,7.35a9.92,9.92,0,0,0,1.31.15,8.7,8.7,0,0,0,8.88-7l10.52-54a2,2,0,1,0-3.87-.76l-8.34,42.79-60.61-11.81,12.61-64.74,60.61,11.81-1.93,9.93A2,2,0,0,0,496.08,730ZM372,693.5l60,11.68-12.59,64.6L359.43,758.1Zm60.36,106.69-32.06-6.25,1.35-7,32.06,6.24Zm50.71-13.83-1.44,7.35a4.75,4.75,0,0,1-5.08,3.82l-.48-.07L360.82,775l-.47-.12a4.76,4.76,0,0,1-3.27-5.45l1.43-7.35Zm-48.43-84.68-61.89-12.06,2.72-14a4.75,4.75,0,0,1,5.57-3.75l115.12,22.42a4.75,4.75,0,0,1,3.75,5.57l-2.72,14Z"/><path class="cls-2" d="M378.63,702.81l9.82,1.91a2,2,0,0,0,.76-3.88l-9.83-1.91a2,2,0,0,0-.75,3.88Z"/><path class="cls-2" d="M395.17,706l4.66.91a2,2,0,0,0,.75-3.88l-4.65-.91a2,2,0,1,0-.76,3.88Z"/><path class="cls-2" d="M392.79,708.64l-6.47-1.26a2,2,0,0,0-.75,3.88l6.46,1.26a2,2,0,0,0,.76-3.88Z"/><path class="cls-2" d="M421.91,721.67l-6.46-1.25a2,2,0,1,0-.76,3.87l6.46,1.26a2,2,0,0,0,.76-3.88Z"/><path class="cls-2" d="M396.42,711.36a2,2,0,0,0,1.56,2.32l15.51,3a2,2,0,0,0,.75-3.88l-15.51-3A2,2,0,0,0,396.42,711.36Z"/><path class="cls-2" d="M388.83,717.24a2,2,0,0,0,1.56,2.32l3.36.65a2,2,0,1,0,.76-3.87l-3.36-.66A2,2,0,0,0,388.83,717.24Z"/><path class="cls-2" d="M408.75,723.13a2,2,0,1,0,.75-3.87l-9.31-1.82a2,2,0,0,0-.75,3.88Z"/><path class="cls-2" d="M383.16,742.22a2,2,0,0,0-1.56-2.31L371.77,738a2,2,0,0,0-.75,3.88l9.82,1.91A2,2,0,0,0,383.16,742.22Z"/><path class="cls-2" d="M388.32,741.21a2,2,0,0,0-.76,3.88l4.66.91a2,2,0,0,0,.75-3.88Z"/><path class="cls-2" d="M386.74,750a2,2,0,0,0-1.56-2.31l-6.47-1.26a2,2,0,0,0-.75,3.88l6.46,1.25A2,2,0,0,0,386.74,750Z"/><path class="cls-2" d="M386.9,755.4l-3.36-.65a2,2,0,1,0-.76,3.87l3.36.66a2,2,0,0,0,.76-3.88Z"/><path class="cls-2" d="M414.3,760.74l-6.46-1.26a2,2,0,1,0-.76,3.88l6.47,1.25a2,2,0,1,0,.75-3.87Z"/><path class="cls-2" d="M408.2,754.2a2,2,0,0,0-1.57-2.31l-15.51-3a2,2,0,0,0-.75,3.88l15.51,3A2,2,0,0,0,408.2,754.2Z"/><path class="cls-2" d="M401.89,758.32l-9.3-1.81a2,2,0,1,0-.76,3.88l9.31,1.81a2,2,0,0,0,.75-3.88Z"/><path class="cls-2" d="M374.18,725.62l5.43,1.06a2,2,0,0,0,.76-3.88l-5.43-1a2,2,0,1,0-.76,3.87Z"/><path class="cls-2" d="M407.26,730.06a2,2,0,0,0-1.56-2.32l-19.9-3.88a2,2,0,1,0-.76,3.88L405,731.62A2,2,0,0,0,407.26,730.06Z"/><path class="cls-2" d="M402.31,736.19a2,2,0,0,0-1.56-2.31l-18.87-3.68a2,2,0,1,0-.76,3.88L400,737.76A2,2,0,0,0,402.31,736.19Z"/><path class="cls-2" d="M405.42,738.81l3.62.71a2,2,0,0,0,.76-3.88l-3.62-.7a2,2,0,1,0-.76,3.87Z"/><path class="cls-2" d="M447.29,758.58l-12.41-2.42a2,2,0,0,0-.75,3.88l12.41,2.41a2,2,0,1,0,.75-3.87Z"/><path class="cls-2" d="M478.83,764.72l-24.56-4.78a2,2,0,1,0-.75,3.87l24.55,4.79a2,2,0,0,0,.76-3.88Z"/><path class="cls-2" d="M445.83,766.07l-12.41-2.41a2,2,0,1,0-.75,3.88l12.4,2.41a2,2,0,0,0,.76-3.88Z"/><path class="cls-2" d="M477.37,772.22l-24.56-4.79a2,2,0,0,0-.76,3.88l24.56,4.79a2,2,0,0,0,.76-3.88Z"/><path class="cls-2" d="M488.56,725.4a5.11,5.11,0,0,0-4-6L446.61,712a5.12,5.12,0,0,0-6,4l-5.12,26.26h0l-.89,4.59a5.11,5.11,0,0,0,4,6l37.93,7.39a5.11,5.11,0,0,0,6-4Zm-9.88,30.1a1.17,1.17,0,0,1-1.36.91L439.4,749a1.15,1.15,0,0,1-.91-1.35l.74-3.79,17-11.43,7.65,12.95a2,2,0,1,0,3.4-2l-.69-1.18,5.23-3.53,7.65,12.95Zm1.89-9.7-5.83-9.87a3.12,3.12,0,0,0-4.44-1l-5.76,3.88-5.39-9.12a3.15,3.15,0,0,0-2-1.46,3.12,3.12,0,0,0-2.43.45l-14.42,9.71,4.21-21.58a1.16,1.16,0,0,1,1.35-.91l37.93,7.39a1.16,1.16,0,0,1,.91,1.35Z"/></g><g class="cls-1"><path class="cls-2" d="M1194,682.57a5.8,5.8,0,1,0,4.59,6.8A5.8,5.8,0,0,0,1194,682.57Zm-1.46,7.5a1.84,1.84,0,1,1,2.17-1.46A1.85,1.85,0,0,1,1192.52,690.07Z"/><path class="cls-2" d="M1208.47,685.39a5.8,5.8,0,1,0,4.58,6.8A5.8,5.8,0,0,0,1208.47,685.39Zm-1.46,7.5a1.84,1.84,0,1,1,2.16-1.46A1.84,1.84,0,0,1,1207,692.89Z"/><path class="cls-2" d="M1223,688.21a5.8,5.8,0,1,0,4.58,6.8A5.81,5.81,0,0,0,1223,688.21Zm-1.46,7.5a1.84,1.84,0,1,1,2.16-1.46A1.84,1.84,0,0,1,1221.5,695.71Z"/><path class="cls-2" d="M1304.08,736a2,2,0,0,0,2.32-1.56l5.55-27.75a8.69,8.69,0,0,0-6.87-10.19L1189.67,674a8.72,8.72,0,0,0-10.2,6.87l-18.27,93.82a8.7,8.7,0,0,0,5.59,9.84,7.8,7.8,0,0,0,1.28.35l37.73,7.35-1.36,7-5.85-1.14a7.21,7.21,0,0,0-8.46,5.7l-.82,4.19a3.3,3.3,0,0,0,2.6,3.86l9.25,1.8a2,2,0,0,0,.75-3.88l-8.6-1.67.69-3.55a3.28,3.28,0,0,1,3.83-2.58l51.52,10a3.26,3.26,0,0,1,2.58,3.83l-.69,3.54L1214,812.07a2,2,0,1,0-.76,3.87l37.94,7.4a3.3,3.3,0,0,0,3.86-2.61l.82-4.19a7.23,7.23,0,0,0-5.7-8.46l-5.86-1.14,1.36-7,37.73,7.35a9.92,9.92,0,0,0,1.31.15,8.7,8.7,0,0,0,8.88-7l10.52-54a2,2,0,1,0-3.87-.76l-8.34,42.79-60.61-11.81,12.61-64.74,60.61,11.81-1.93,9.93A2,2,0,0,0,1304.08,736ZM1180,699.5l60,11.68-12.59,64.6-60-11.68Zm60.36,106.69-32.06-6.25,1.35-7,32.06,6.24Zm50.71-13.83-1.44,7.35a4.75,4.75,0,0,1-5.08,3.82l-.48-.07L1168.82,781l-.47-.12a4.76,4.76,0,0,1-3.27-5.45l1.43-7.35Zm-48.43-84.68-61.89-12.06,2.72-14a4.75,4.75,0,0,1,5.57-3.75l115.12,22.42a4.75,4.75,0,0,1,3.75,5.57l-2.72,14Z"/><path class="cls-2" d="M1186.63,708.81l9.82,1.91a2,2,0,0,0,.76-3.88l-9.83-1.91a2,2,0,0,0-.75,3.88Z"/><path class="cls-2" d="M1203.17,712l4.66.91a2,2,0,0,0,.75-3.88l-4.65-.91a2,2,0,0,0-.76,3.88Z"/><path class="cls-2" d="M1200.79,714.64l-6.47-1.26a2,2,0,0,0-.75,3.88l6.46,1.26a2,2,0,0,0,.76-3.88Z"/><path class="cls-2" d="M1229.91,727.67l-6.46-1.25a2,2,0,1,0-.76,3.87l6.46,1.26a2,2,0,0,0,.76-3.88Z"/><path class="cls-2" d="M1204.42,717.36a2,2,0,0,0,1.56,2.32l15.51,3a2,2,0,0,0,.75-3.88l-15.51-3A2,2,0,0,0,1204.42,717.36Z"/><path class="cls-2" d="M1196.83,723.24a2,2,0,0,0,1.56,2.32l3.36.65a2,2,0,1,0,.76-3.87l-3.36-.66A2,2,0,0,0,1196.83,723.24Z"/><path class="cls-2" d="M1216.75,729.13a2,2,0,0,0,.75-3.87l-9.31-1.82a2,2,0,0,0-.75,3.88Z"/><path class="cls-2" d="M1191.16,748.22a2,2,0,0,0-1.56-2.31l-9.83-1.92a2,2,0,0,0-.75,3.88l9.82,1.91A2,2,0,0,0,1191.16,748.22Z"/><path class="cls-2" d="M1196.32,747.21a2,2,0,0,0-.76,3.88l4.66.91a2,2,0,0,0,.75-3.88Z"/><path class="cls-2" d="M1194.74,756a2,2,0,0,0-1.56-2.31l-6.47-1.26a2,2,0,0,0-.75,3.88l6.46,1.25A2,2,0,0,0,1194.74,756Z"/><path class="cls-2" d="M1194.9,761.4l-3.36-.65a2,2,0,1,0-.76,3.87l3.36.66a2,2,0,0,0,.76-3.88Z"/><path class="cls-2" d="M1222.3,766.74l-6.46-1.26a2,2,0,1,0-.76,3.88l6.47,1.25a2,2,0,1,0,.75-3.87Z"/><path class="cls-2" d="M1216.2,760.2a2,2,0,0,0-1.57-2.31l-15.51-3a2,2,0,0,0-.75,3.88l15.51,3A2,2,0,0,0,1216.2,760.2Z"/><path class="cls-2" d="M1209.89,764.32l-9.3-1.81a2,2,0,1,0-.76,3.88l9.31,1.81a2,2,0,0,0,.75-3.88Z"/><path class="cls-2" d="M1182.18,731.62l5.43,1.06a2,2,0,1,0,.76-3.88l-5.43-1a2,2,0,1,0-.76,3.87Z"/><path class="cls-2" d="M1215.26,736.06a2,2,0,0,0-1.56-2.32l-19.9-3.88a2,2,0,1,0-.76,3.88l19.91,3.88A2,2,0,0,0,1215.26,736.06Z"/><path class="cls-2" d="M1210.31,742.19a2,2,0,0,0-1.56-2.31l-18.87-3.68a2,2,0,1,0-.76,3.88l18.87,3.68A2,2,0,0,0,1210.31,742.19Z"/><path class="cls-2" d="M1213.42,744.81l3.62.71a2,2,0,0,0,.76-3.88l-3.62-.7a2,2,0,1,0-.76,3.87Z"/><path class="cls-2" d="M1255.29,764.58l-12.41-2.42a2,2,0,0,0-.75,3.88l12.41,2.41a2,2,0,1,0,.75-3.87Z"/><path class="cls-2" d="M1286.83,770.72l-24.56-4.78a2,2,0,1,0-.75,3.87l24.55,4.79a2,2,0,1,0,.76-3.88Z"/><path class="cls-2" d="M1253.83,772.07l-12.41-2.41a2,2,0,1,0-.75,3.88l12.4,2.41a2,2,0,1,0,.76-3.88Z"/><path class="cls-2" d="M1285.37,778.22l-24.56-4.79a2,2,0,0,0-.76,3.88l24.56,4.79a2,2,0,1,0,.76-3.88Z"/><path class="cls-2" d="M1296.56,731.4a5.11,5.11,0,0,0-4-6L1254.61,718a5.12,5.12,0,0,0-6,4l-5.12,26.26h0l-.89,4.59a5.11,5.11,0,0,0,4,6l37.93,7.39a5.11,5.11,0,0,0,6-4Zm-9.88,30.1a1.17,1.17,0,0,1-1.36.91L1247.4,755a1.15,1.15,0,0,1-.91-1.35l.74-3.79,17-11.43,7.65,12.95a2,2,0,1,0,3.4-2l-.69-1.18,5.23-3.53,7.65,12.95Zm1.89-9.7-5.83-9.87a3.12,3.12,0,0,0-4.44-1l-5.76,3.88-5.39-9.12a3.15,3.15,0,0,0-2-1.46,3.12,3.12,0,0,0-2.43.45l-14.42,9.71,4.21-21.58a1.16,1.16,0,0,1,1.35-.91l37.93,7.39a1.16,1.16,0,0,1,.91,1.35Z"/></g><g class="cls-1"><path class="cls-2" d="M456.17,462.44a5.8,5.8,0,1,0,6.7,4.73A5.79,5.79,0,0,0,456.17,462.44Zm1.3,7.53a1.84,1.84,0,1,1,1.51-2.13A1.84,1.84,0,0,1,457.47,470Z"/><path class="cls-2" d="M470.72,459.93a5.8,5.8,0,1,0,6.69,4.73A5.81,5.81,0,0,0,470.72,459.93Zm1.3,7.54a1.85,1.85,0,1,1,1.5-2.14A1.86,1.86,0,0,1,472,467.47Z"/><path class="cls-2" d="M485.26,457.43a5.79,5.79,0,1,0,6.7,4.72A5.8,5.8,0,0,0,485.26,457.43Zm1.3,7.53a1.85,1.85,0,1,1,1.51-2.13A1.85,1.85,0,0,1,486.56,465Z"/><path class="cls-2" d="M578.06,473.28a2,2,0,0,0,1.61-2.28L575,443.08A8.71,8.71,0,0,0,565,436L449.1,456A8.69,8.69,0,0,0,442,466l16.23,94.19a8.72,8.72,0,0,0,8.73,7.22,8.55,8.55,0,0,0,1.32-.13l37.88-6.53,1.2,7-5.88,1a7.21,7.21,0,0,0-5.88,8.33l.72,4.21a3.29,3.29,0,0,0,3.8,2.68l9.29-1.6a2,2,0,0,0-.67-3.89L500.11,580l-.61-3.56a3.26,3.26,0,0,1,2.66-3.77l51.73-8.92a3.28,3.28,0,0,1,3.77,2.66l.61,3.56-37.44,6.46a2,2,0,0,0,.67,3.89l38.09-6.57a3.29,3.29,0,0,0,2.69-3.8l-.73-4.21a7.21,7.21,0,0,0-8.33-5.88l-5.88,1-1.21-7L584,547.34a8.65,8.65,0,0,0,7.09-10l-9.35-54.23a2,2,0,1,0-3.89.67l7.41,43-60.85,10.49-11.21-65,60.85-10.49,1.72,10A2,2,0,0,0,578.06,473.28Zm-128.93,10,60.19-10.38,11.18,64.86-60.19,10.38Zm94.32,78.29-32.19,5.55-1.2-7,32.18-5.55Zm42.49-30.94,1.27,7.39a4.74,4.74,0,0,1-3.39,5.37l-.48.11L467.62,563.4l-.48.06a4.75,4.75,0,0,1-5-3.93l-1.28-7.38Zm-75.35-62-62.13,10.71-2.42-14a4.75,4.75,0,0,1,3.87-5.48l115.58-19.93a4.75,4.75,0,0,1,5.48,3.87l2.42,14Z"/><path class="cls-2" d="M458.62,489.58l9.86-1.7a2,2,0,0,0-.67-3.89l-9.86,1.7a2,2,0,1,0,.67,3.89Z"/><path class="cls-2" d="M475.23,486.72l4.67-.81a2,2,0,1,0-.67-3.89l-4.67.81a2,2,0,0,0,.67,3.89Z"/><path class="cls-2" d="M473.92,490l-6.49,1.12a2,2,0,1,0,.68,3.89l6.48-1.12a2,2,0,1,0-.67-3.89Z"/><path class="cls-2" d="M505.78,491.85,499.29,493a2,2,0,1,0,.67,3.89l6.49-1.12a2,2,0,1,0-.67-3.89Z"/><path class="cls-2" d="M478.28,491.26a2,2,0,0,0,2.28,1.61l15.58-2.68a2,2,0,0,0-.67-3.89L479.89,489A2,2,0,0,0,478.28,491.26Z"/><path class="cls-2" d="M473.28,499.45a2,2,0,0,0,2.28,1.61l3.38-.58a2,2,0,1,0-.67-3.89l-3.38.58A2,2,0,0,0,473.28,499.45Z"/><path class="cls-2" d="M494,497.89a2,2,0,1,0-.67-3.89L484,495.61a2,2,0,1,0,.67,3.89Z"/><path class="cls-2" d="M476.85,524.82a2,2,0,0,0-2.28-1.61l-9.86,1.7a2,2,0,1,0,.67,3.89l9.86-1.7A2,2,0,0,0,476.85,524.82Z"/><path class="cls-2" d="M481.32,522a2,2,0,0,0,.67,3.9l4.67-.81a2,2,0,0,0-.67-3.89Z"/><path class="cls-2" d="M483,530.84a2,2,0,0,0-2.29-1.61l-6.48,1.12a2,2,0,1,0,.67,3.89l6.49-1.12A2,2,0,0,0,483,530.84Z"/><path class="cls-2" d="M485,535.81l-3.38.58a2,2,0,1,0,.67,3.89l3.38-.58a2,2,0,1,0-.67-3.89Z"/><path class="cls-2" d="M512.54,531.07l-6.49,1.11a2,2,0,0,0,.67,3.9l6.49-1.12a2,2,0,0,0-.67-3.89Z"/><path class="cls-2" d="M504.51,527.13a2,2,0,0,0-2.28-1.62l-15.58,2.69a2,2,0,1,0,.68,3.89l15.57-2.68A2,2,0,0,0,504.51,527.13Z"/><path class="cls-2" d="M500.08,533.21l-9.34,1.61a2,2,0,1,0,.67,3.9l9.34-1.61a2,2,0,0,0-.67-3.9Z"/><path class="cls-2" d="M462.57,512.49l5.45-.94a2,2,0,1,0-.68-3.89l-5.45.94a2,2,0,1,0,.68,3.89Z"/><path class="cls-2" d="M495.06,504.88a2,2,0,0,0-2.28-1.61l-20,3.45a2,2,0,1,0,.67,3.89l20-3.44A2,2,0,0,0,495.06,504.88Z"/><path class="cls-2" d="M492.61,512.38a2,2,0,0,0-2.28-1.61L471.38,514a2,2,0,1,0,.68,3.89L491,514.66A2,2,0,0,0,492.61,512.38Z"/><path class="cls-2" d="M496.45,513.72l3.64-.62a2,2,0,1,0-.68-3.9l-3.63.63a2,2,0,1,0,.67,3.89Z"/><path class="cls-2" d="M542.61,517.33l-12.46,2.15a2,2,0,0,0,.67,3.89l12.46-2.15a2,2,0,0,0-.67-3.89Z"/><path class="cls-2" d="M574.27,511.87l-24.65,4.25a2,2,0,1,0,.67,3.89L575,515.76a2,2,0,1,0-.68-3.89Z"/><path class="cls-2" d="M543.91,524.86,531.45,527a2,2,0,0,0,.67,3.9l12.46-2.15a2,2,0,1,0-.67-3.89Z"/><path class="cls-2" d="M575.57,519.4l-24.65,4.25a2,2,0,1,0,.67,3.89l24.65-4.25a2,2,0,1,0-.67-3.89Z"/><path class="cls-2" d="M569.41,471.65a5.11,5.11,0,0,0-5.9-4.16l-38.08,6.56a5.11,5.11,0,0,0-4.16,5.9l4.55,26.37h0l.79,4.61a5.11,5.11,0,0,0,5.9,4.16l38.08-6.56a5.11,5.11,0,0,0,4.16-5.9Zm1.44,31.65a1.14,1.14,0,0,1-.94,1.33l-38.07,6.57a1.15,1.15,0,0,1-1.33-.94l-.66-3.81,11.8-16.71,11.75,9.4a2,2,0,0,0,2.47-3.09l-1.07-.85,3.64-5.16,11.75,9.39Zm-1.67-9.74-8.95-7.15a3.14,3.14,0,0,0-4.51.64l-4,5.68-8.28-6.62a3.16,3.16,0,0,0-2.39-.65,3.11,3.11,0,0,0-2.11,1.29l-10,14.2-3.73-21.67a1.14,1.14,0,0,1,.94-1.33l38.07-6.57a1.15,1.15,0,0,1,1.33.94Z"/></g><g class="cls-1"><path class="cls-2" d="M792.5,698.74a10.89,10.89,0,1,0,10.89,10.89A10.91,10.91,0,0,0,792.5,698.74Zm0,17.42a6.53,6.53,0,1,1,6.53-6.53A6.54,6.54,0,0,1,792.5,716.16Z"/><path class="cls-2" d="M790.32,624.71h17.42v4.35H790.32Z"/><path class="cls-2" d="M790.32,633.42h17.42v4.35H790.32Z"/><path class="cls-2" d="M777.26,642.13h30.48v4.35H777.26Z"/><path class="cls-2" d="M777.26,650.84h30.48v4.35H777.26Z"/><path class="cls-2" d="M777.26,659.55h30.48v4.35H777.26Z"/><path class="cls-2" d="M860,685.68V668.26H829.52v17.42h13.06v21.77H816.45V703.7l-5.34-1.78,2.52-5-8.38-8.38-5,2.53-1.78-5.35h-3.75V672.61h21.77V646.48h26.13v12.17l-5-5-3.08,3.08L844.76,667,855,656.73l-3.08-3.08-5,5V642.13H816.45V616H782.89l-14.34,14.34v11.79H738.06v16.52l-5-5L730,656.73,740.24,667l10.25-10.25-3.08-3.08-5,5V646.48h26.13v26.13h21.77v13.07h-3.75L784.79,691l-5-2.53-8.38,8.38,2.52,5-5.34,1.78v3.75H742.42V685.68h13.06V668.26H725v17.42h13.06v35.15a8.71,8.71,0,1,0,4.36,0v-9h13.06v26.53a6.53,6.53,0,1,0,4.36,0V711.81h8.71v3.74l5.34,1.79-2.52,5,8.38,8.37,5-2.52,1.78,5.35h11.85l1.78-5.35,5,2.52,8.38-8.37-2.52-5,5.35-1.79v-3.74h8.71v26.53a6.53,6.53,0,1,0,4.36,0V711.81h13.06v9a8.71,8.71,0,1,0,4.36,0V685.68Zm-78.39-62.25v5.63H776Zm-8.71,10H786V620.35H812.1v47.91H772.9Zm-43.55,39.19h21.78v8.71H729.35Zm15.25,56.62a4.36,4.36,0,1,1-4.36-4.36A4.36,4.36,0,0,1,744.6,729.23Zm13.06,17.42a2.18,2.18,0,1,1,2.18-2.18A2.19,2.19,0,0,1,757.66,746.65Zm54.44-34.24-5,1.67-.37,1c-.11.28-.21.56-.33.82l-.43.95,2.36,4.71-3.94,3.93-4.71-2.35-.94.42-.82.34-1,.36-1.67,5h-5.57l-1.66-5-1-.36-.82-.34-.94-.42-4.71,2.35-3.94-3.93,2.35-4.71-.42-.95c-.12-.27-.23-.54-.34-.82l-.36-1-5-1.67v-5.57l5-1.66.37-1c.11-.28.21-.56.33-.83l.43-.94-2.36-4.71,3.94-3.94,4.71,2.36.94-.43c.27-.12.54-.23.82-.33l1-.37,1.67-5h5.57l1.66,5,1,.36.82.34.94.42,4.71-2.36,3.94,3.94L806,702.45l.42.94c.12.28.23.55.34.83l.36,1,5,1.66Zm15.24,34.24a2.18,2.18,0,1,1,2.18-2.18A2.19,2.19,0,0,1,827.34,746.65Zm21.77-17.42a4.36,4.36,0,1,1-4.35-4.36A4.35,4.35,0,0,1,849.11,729.23Zm-15.24-56.62h21.78v8.71H833.87Z"/></g><g class="cls-1"><path class="cls-2" d="M709.4,110.15l5.62-.42.83,11.23-5.62.42Z"/><path class="cls-2" d="M725.22,128.33,722,123.74A17.22,17.22,0,0,1,704.6,125l-2.54,5a22.53,22.53,0,0,0,23.16-1.73Z"/><path class="cls-2" d="M677.4,211.39l11.23-.84.84,11.23,5.62-.41-2.52-33.71-5.61.42,1.25,16.85-11.23.84-2.17-29a8.43,8.43,0,0,1,4.61-8.16L702.23,157a14,14,0,0,0,26.82-2l8.23,2.73,1.77-5.35-9.8-3.25-.49-6.56a36.67,36.67,0,0,0,20-35.37l-2.25-30.28a8.42,8.42,0,0,0,2.34-6.45l-.42-5.62a19.73,19.73,0,0,0-21.12-18.19L696.37,49a14,14,0,0,0-10.75,6.45l-5.69.42a14.11,14.11,0,0,0-13,15.09l.42,5.62a8.43,8.43,0,0,0,6.21,7.49l2.13,28.61a36.66,36.66,0,0,0,25,32l.49,6.56-24.29,12.31a14.05,14.05,0,0,0-7.67,13.61L672.61,223l5.62-.42Zm46.37-59.95a8.45,8.45,0,1,1-16.85,1.26l-.5-6.64a35.32,35.32,0,0,0,16.86-1.26ZM689,63.65a8.47,8.47,0,0,1,7.8-9.06l30.89-2.3a14.1,14.1,0,0,1,15.09,13l.42,5.62a2.82,2.82,0,0,1-2.6,3l-42.13,3.14a8.46,8.46,0,0,1-9.05-7.8Zm-1.77,14.17a14,14,0,0,0,11.66,4.86L741,79.55l1,14L736,94a11.21,11.21,0,0,0-21.67,1.61l-6.42.48a11.21,11.21,0,0,0-21.67,1.61l-6,.45L679.2,83.86A14.1,14.1,0,0,0,687.22,77.82ZM731,97.24a5.63,5.63,0,1,1-6-5.2A5.63,5.63,0,0,1,731,97.24Zm-28.09,2.09a5.63,5.63,0,1,1-6-5.2A5.62,5.62,0,0,1,702.94,99.33ZM673,76.14l-.42-5.62a8.46,8.46,0,0,1,7.8-9l2.81-.21.63,8.43a8.46,8.46,0,0,1-7.8,9A2.83,2.83,0,0,1,673,76.14Zm8.34,36.1-.63-8.43,6-.45a11.21,11.21,0,0,0,21.67-1.61l6.42-.48a11.21,11.21,0,0,0,21.67-1.61l6-.45.62,8.42a31,31,0,0,1-61.79,4.61Z"/><path class="cls-2" d="M819.48,147.14l-2.93-39.33a8.46,8.46,0,0,0-9-7.8l-39.33,2.93a8.45,8.45,0,0,0-7.79,9.06l2.92,39.32a8.47,8.47,0,0,0,9.06,7.8l39.32-2.93A8.46,8.46,0,0,0,819.48,147.14Zm-5.62.42a2.8,2.8,0,0,1-2.6,3l-39.32,2.93a2.82,2.82,0,0,1-3-2.6L766,111.58a2.83,2.83,0,0,1,2.6-3l39.33-2.93a2.83,2.83,0,0,1,3,2.6Z"/><path class="cls-2" d="M799.15,123.18l3.94-4.58-4.27-3.68-3.94,4.58a11.25,11.25,0,0,0-3-1l-.45-6-5.62.42.45,6a11.13,11.13,0,0,0-2.77,1.41L779,116.4l-3.67,4.27,4.57,3.94a11.44,11.44,0,0,0-1,3l-6,.44.41,5.62,6-.45a11.2,11.2,0,0,0,1.41,2.78l-3.94,4.57,4.26,3.68,4-4.58a10.56,10.56,0,0,0,2.95,1l.45,6,5.61-.42-.44-6a11.27,11.27,0,0,0,2.77-1.4l4.58,3.94,3.67-4.27L800,134.52a10.67,10.67,0,0,0,1-3l6-.45-.42-5.62-6,.45A11.13,11.13,0,0,0,799.15,123.18Zm-8.8,12a5.63,5.63,0,1,1,5.2-6A5.62,5.62,0,0,1,790.35,135.18Z"/><path class="cls-2" d="M826.86,132.47l-2.81.2.42,5.62,2.81-.21a2.83,2.83,0,0,1,3,2.6L833.23,180l-78.65,5.85-2.93-39.32a2.83,2.83,0,0,1,2.6-3l2.81-.21-.42-5.61-2.81.2A8.47,8.47,0,0,0,746,147l3.77,50.56a8.46,8.46,0,0,0,9.05,7.8l25.28-1.88.42,5.61-5.62.42.42,5.62,33.71-2.51-.42-5.62-5.62.42-.42-5.62,25.28-1.88a8.45,8.45,0,0,0,7.8-9.06l-3.76-50.56A8.45,8.45,0,0,0,826.86,132.47ZM801.4,207.8l-11.23.83-.42-5.61,11.24-.84Zm32.67-16.56a2.83,2.83,0,0,1-2.6,3l-73,5.44a2.81,2.81,0,0,1-3-2.6l-.42-5.62,78.65-5.86Z"/><path class="cls-2" d="M767.58,170.77l5.62-.41.41,5.61-5.61.42Z"/><path class="cls-2" d="M778.81,169.94l5.62-.42.42,5.62-5.62.42Z"/><path class="cls-2" d="M790.05,169.1l5.62-.42.42,5.62-5.62.42Z"/><path class="cls-2" d="M801.28,168.26l5.62-.41.42,5.61-5.62.42Z"/><path class="cls-2" d="M812.52,167.43l5.62-.42.42,5.62-5.62.41Z"/></g><g class="cls-1"><path class="cls-2" d="M1391.59,460.26l5-.92.91,4.87-5,.92Z"/><path class="cls-2" d="M1376.81,429.73l10,5,3.84,20.65,5-.92-4.29-23.05-12.25-6.11Z"/><path class="cls-2" d="M1454.56,302.38a7.52,7.52,0,0,0-6.08,8.7,7.35,7.35,0,0,0,.92,2.36l-14.24,13.64a63.66,63.66,0,0,0-94.27,20.36l-16.49-10.17a7.15,7.15,0,0,0,.12-3.13,7.6,7.6,0,1,0-2.91,7.28l17.06,10.52a60.82,60.82,0,0,0-4.18,35.79l1,5.31a61.93,61.93,0,0,0,33.17,43.77l9.17,4.58,5.67,30.46,5-.92-6.12-32.86L1371,432.38a57,57,0,0,1-30.52-40.26l-1-5.32a55.88,55.88,0,0,1,3.55-32.19l7.32,4.51a7.16,7.16,0,0,0-.07,3,7.42,7.42,0,0,0,5.5,5.8l.9,10.9a7.44,7.44,0,0,0-4.35,8.12,7.52,7.52,0,0,0,8.8,5.93,7.73,7.73,0,0,0,3.89-2l9.83,4.77a7.27,7.27,0,0,0,0,2.23,7.43,7.43,0,0,0,6.24,5.93L1383,414l5-.92-1.89-10.19a7.36,7.36,0,0,0-2-13.63L1382.12,371a7.51,7.51,0,0,0,3.89-4.34l16.46-.36a7.53,7.53,0,0,0,8.43,4.68,7.09,7.09,0,0,0,1.29-.38l3.94,4.58a7.3,7.3,0,0,0-.94,5.08,5.7,5.7,0,0,0,.16.55l-8.78,5.94a7.58,7.58,0,0,0-11.88,7.41,7.43,7.43,0,0,0,6.23,5.93l1.9,10.19,5-.92-1.9-10.19a7.43,7.43,0,0,0,3.68-7.78,5.7,5.7,0,0,0-.16-.55l8.78-6a7.56,7.56,0,0,0,11.88-7.4,7.35,7.35,0,0,0-2.77-4.46l3.76-11a7.44,7.44,0,1,0-1.47-14.72,8.39,8.39,0,0,0-1.45.42l-3.41-3.79,10.68-10.23a56,56,0,0,1,18.1,31.83l5.56,29.91-6.84,3.74,2.45,26.62-17.57,3.27a17.53,17.53,0,0,1-20.53-13.83l-5,.93a22.46,22.46,0,0,0,23.88,18.08l5,26.94,5-.92-5-26.79,19.62-3.65-2.57-27.9,7.13-3.9-6.22-33.42A60.83,60.83,0,0,0,1439,330.27l14.23-13.63a7.47,7.47,0,1,0,1.3-14.26ZM1314.6,336a2.52,2.52,0,1,1,2.94,2A2.5,2.5,0,0,1,1314.6,336Zm88,59.23a2.48,2.48,0,1,1,2-2.9A2.5,2.5,0,0,1,1402.58,395.22Zm-15.84-55L1403.8,337l-21.57,20.66c-.23-.11-.47-.21-.71-.3l.19-11.32a7.5,7.5,0,0,0,5-5.87Zm39.54,20.3-3.76,11a7.45,7.45,0,0,0-1.25.11,7,7,0,0,0-1.3.38l-3.94-4.58a7.28,7.28,0,0,0-3.52-10.54l1.08-16.67c.26-.07.52-.12.76-.21l10,11.14a7.18,7.18,0,0,0,1.91,9.4Zm-23.87.86-16.46.35c-.07-.16-.14-.32-.22-.48l22.45-21.5c.13.06.25.14.38.19l-1.08,16.66A7.5,7.5,0,0,0,1402.41,361.36Zm9.58-25.85a2.48,2.48,0,1,1,2-2.9A2.5,2.5,0,0,1,1412,335.51Zm-32.23,6a2.48,2.48,0,1,1,2-2.89A2.51,2.51,0,0,1,1379.76,341.5Zm-3.66,4.3a5.59,5.59,0,0,0,.57.22l-.2,11.32a7.47,7.47,0,0,0-5,8.39,7.16,7.16,0,0,0,.83,2.21l-9.68,10.72c-.29-.11-.6-.2-.92-.29l-.9-10.89a7.46,7.46,0,0,0,4.35-8.13,6.87,6.87,0,0,0-.66-1.88Zm.94,45.36-9.83-4.76a7,7,0,0,0,0-2.23,7.07,7.07,0,0,0-.83-2.21l9.68-10.73a8.14,8.14,0,0,0,1.09.35l1.94,18.23a7.54,7.54,0,0,0-2,1.35Zm-16.88-30.89a2.52,2.52,0,1,1-2.93-2A2.5,2.5,0,0,1,1360.16,360.27Zm-2.9,25.74a2.52,2.52,0,1,1,2.93,2A2.5,2.5,0,0,1,1357.26,386Zm25.48,12.9a2.48,2.48,0,1,1,2-2.9A2.5,2.5,0,0,1,1382.74,398.91Zm-3.41-32.13a2.48,2.48,0,1,1,2-2.89A2.49,2.49,0,0,1,1379.33,366.78Zm27.73-2.64a2.52,2.52,0,1,1,2.93,2A2.49,2.49,0,0,1,1407.06,364.14Zm16,17.18a2.48,2.48,0,1,1,2-2.89A2.49,2.49,0,0,1,1423.08,381.32Zm10.34-27.12a2.52,2.52,0,1,1-2.93-2A2.51,2.51,0,0,1,1433.42,354.2Zm-12-13.93-3.28-3.64a7.3,7.3,0,0,0,.86-4.94,7.56,7.56,0,0,0-14.87.24l-18.27,3.4a7.56,7.56,0,0,0-14,5.12,6.67,6.67,0,0,0,.66,1.88L1360.89,354a7.68,7.68,0,0,0-4.57-.57,7.79,7.79,0,0,0-3.28,1.51l-7.88-4.86a58.57,58.57,0,0,1,86.34-19.49Zm35-28.14a2.48,2.48,0,1,1,2-2.9A2.51,2.51,0,0,1,1456.38,312.13Z"/></g><g class="cls-1"><path class="cls-2" d="M1068.42,551.78a2.41,2.41,0,0,1-1.53-.56l-15.27-13a2.37,2.37,0,0,1,0-3.6l15.27-13a2.36,2.36,0,0,1,3.06,3.6l-13.16,11.21L1070,547.62a2.36,2.36,0,0,1-1.53,4.16Z"/><path class="cls-2" d="M1098.58,551.78a2.36,2.36,0,0,1-1.53-4.16l13.16-11.21-13.16-11.21a2.36,2.36,0,0,1,3.06-3.6l15.27,13a2.37,2.37,0,0,1,0,3.6l-15.27,13A2.41,2.41,0,0,1,1098.58,551.78Z"/><path class="cls-2" d="M1078.09,561.54a2.81,2.81,0,0,1-.49,0,2.37,2.37,0,0,1-1.82-2.8l9.52-45.21a2.36,2.36,0,1,1,4.62,1l-9.52,45.2A2.38,2.38,0,0,1,1078.09,561.54Z"/><path class="cls-2" d="M1139.15,586.17h-111.3A15.87,15.87,0,0,1,1012,570.31V475.85A15.87,15.87,0,0,1,1027.85,460h111.3A15.87,15.87,0,0,1,1155,475.85v94.46A15.87,15.87,0,0,1,1139.15,586.17Zm-111.3-121.45a11.14,11.14,0,0,0-11.13,11.13v94.46a11.14,11.14,0,0,0,11.13,11.13h111.3a11.14,11.14,0,0,0,11.13-11.13V475.85a11.14,11.14,0,0,0-11.13-11.13Z"/><path class="cls-2" d="M1152.64,497.8H1014.36a2.36,2.36,0,0,1,0-4.72h138.28a2.36,2.36,0,0,1,0,4.72Z"/><path class="cls-2" d="M1052.34,486.51a7.48,7.48,0,1,1,7.47-7.47A7.48,7.48,0,0,1,1052.34,486.51Zm0-10.22a2.75,2.75,0,1,0,2.75,2.75A2.75,2.75,0,0,0,1052.34,476.29Z"/><path class="cls-2" d="M1029.38,486.43a7.47,7.47,0,1,1,7.47-7.47A7.48,7.48,0,0,1,1029.38,486.43Zm0-10.22a2.75,2.75,0,1,0,2.75,2.75A2.76,2.76,0,0,0,1029.38,476.21Z"/><path class="cls-2" d="M1075.29,486.58a7.47,7.47,0,1,1,7.47-7.47A7.48,7.48,0,0,1,1075.29,486.58Zm0-10.22a2.75,2.75,0,1,0,2.75,2.75A2.75,2.75,0,0,0,1075.29,476.36Z"/></g><g class="cls-1"><path class="cls-2" d="M754.53,447.83a8,8,0,1,0-9.25-6.6A8,8,0,0,0,754.53,447.83Zm-1.89-11.33a3.45,3.45,0,1,1-2.83,4A3.46,3.46,0,0,1,752.64,436.5Z"/><path class="cls-2" d="M856.88,481.94l-1.52-9.06a2.3,2.3,0,0,0-2.64-1.89,2.28,2.28,0,0,1-2.64-1.89,2.3,2.3,0,0,0-2.65-1.88l-99.68,16.67a2.29,2.29,0,0,0-1.88,2.64,2.3,2.3,0,0,1-1.89,2.64,2.31,2.31,0,0,0-1.89,2.65l1.52,9.06a2.3,2.3,0,1,0,4.53-.76l-1.21-7.21a6.88,6.88,0,0,0,3.43-4.8l96-16.05a6.89,6.89,0,0,0,4.8,3.42l1.21,7.22a2.3,2.3,0,0,0,4.53-.76Z"/><path class="cls-2" d="M726.23,480.5l2.26-.38,3.79,22.65a2.3,2.3,0,1,0,4.53-.75L733,479.36l126.87-21.21,3.79,22.65a2.3,2.3,0,0,0,4.53-.75l-3.79-22.66,2.26-.38a2.29,2.29,0,0,0,1.89-2.64l-1.52-9.06a2.28,2.28,0,0,0-2.64-1.89l-2.27.38-2.27-13.59A16.1,16.1,0,0,0,841.36,417h0l-6.79,1.14-.62-3.68a27.54,27.54,0,0,0,9.66-25.77h0l-3.41-20.4a13.77,13.77,0,0,0-13.56-11.49l-1.17-7a2.29,2.29,0,0,0-2.65-1.89l-18.12,3h0a23,23,0,0,0-18.84,26.43l3.41,20.39A27.58,27.58,0,0,0,806.77,419l.61,3.68-6.79,1.13h0a16.1,16.1,0,0,0-13.2,18.51l.76,4.54-2.27.38-5.3-31.72a6.89,6.89,0,0,0-7.93-5.66l-47.58,8a6.9,6.9,0,0,0-5.66,7.93l6.44,38.51a7.09,7.09,0,0,0,.8,2.19l-2.69.45a2.29,2.29,0,0,0-1.88,2.64l1.51,9.06A2.29,2.29,0,0,0,726.23,480.5Zm79.23-125h0l15.83-2.65,1.14,6.79a2.29,2.29,0,0,0,2.65,1.89,9.2,9.2,0,0,1,10.57,7.55l1,5.86-3.42-2.44s-.07,0-.11-.05a2.39,2.39,0,0,0-.43-.2,1.47,1.47,0,0,0-.83-.14,2.12,2.12,0,0,0-.44,0,2.58,2.58,0,0,0-.39.14,2.49,2.49,0,0,0-.43.22s-.07,0-.11,0a41.15,41.15,0,0,1-16.34,7.11,41.59,41.59,0,0,1-17.76-1.41.5.5,0,0,1-.12,0,2.42,2.42,0,0,0-.47-.06,1.35,1.35,0,0,0-.83.11,2.1,2.1,0,0,0-.42.15,2.6,2.6,0,0,0-.33.25,2.69,2.69,0,0,0-.35.33.73.73,0,0,1-.09.08l-2.44,3.42-1-5.86a18.4,18.4,0,0,1,15.1-21.15ZM793.77,397l-1.35-8.13,4.15-5.83a41.07,41.07,0,0,0,35.33-5.91l5.82,4.16,1.36,8.13A23,23,0,0,1,793.77,397ZM821,420.41a27.43,27.43,0,0,0,8.8-3.1l.49,2.92-2.4,3.35-5.77-.91c-.09,0-.17,0-.25,0a2.57,2.57,0,0,0-.48,0,2.44,2.44,0,0,0-.46.14,2.17,2.17,0,0,0-.24.07l-5.17,2.74-3.36-2.39-.48-2.92a27.48,27.48,0,0,0,9.32.07Zm-29.06,21.16a11.49,11.49,0,0,1,9.43-13.22l8.13-1.35,4.51,3.21a.59.59,0,0,0,.14.06,2.17,2.17,0,0,0,.54.24l.23.08a2.38,2.38,0,0,0,.8,0,2.33,2.33,0,0,0,.7-.24l5.74-3,6.42,1a2.29,2.29,0,0,0,.74,0,2.33,2.33,0,0,0,.75-.27l.19-.15a2.14,2.14,0,0,0,.44-.41s.08-.06.11-.1l3.22-4.51,8.12-1.36A11.5,11.5,0,0,1,855.34,431l2.27,13.6-48,8a6.68,6.68,0,0,0,0-2.32l-.75-4.54a2.3,2.3,0,0,0-2.65-1.88l-13.59,2.27Zm12.84,7.18.38,2.26a2.29,2.29,0,0,1-1.84,2.63L787,456.37a6.87,6.87,0,0,0,0-2.31v0l-.38-2.26Zm-78.93-26.39,47.58-8a2.3,2.3,0,0,1,2.64,1.89l5.68,34h0l.76,4.51h0a2.3,2.3,0,0,1-1.84,2.63l-47.64,8a2.29,2.29,0,0,1-2.63-1.88L723.94,425a2.29,2.29,0,0,1,1.88-2.64Zm1.16,48.7,4.51-.76h0l47.55-8h0L804,458.19l.09,0,56.5-9.44s0,0,0,0l0,0,2.22-.37.76,4.53L727.73,475.59Z"/><path class="cls-2" d="M825.59,447.58a2.3,2.3,0,0,0-.76-4.53h0a2.29,2.29,0,1,0,.78,4.52Z"/><path class="cls-2" d="M824.07,438.52a2.3,2.3,0,1,0-.76-4.53h0a2.3,2.3,0,0,0,.78,4.53Z"/><path class="cls-2" d="M745.5,407.29l2,1.43a2.29,2.29,0,0,0,3.2-.53l1.73-2.42a26.44,26.44,0,1,0-6.94,1.52Zm-5.74-47.82a21.81,21.81,0,0,1,10.51,42.19,2.35,2.35,0,0,0-1.15.84l-.81,1.15-.84-.6a2.3,2.3,0,0,0-1.6-.41,21.81,21.81,0,0,1-6.11-43.17Z"/><path class="cls-2" d="M752,387a2.29,2.29,0,0,0,3.2-.53l4.69-6.58s0,0,0,0a2.25,2.25,0,0,0,.39-1.71,2.31,2.31,0,0,0-.93-1.5h0l-6.58-4.7a2.3,2.3,0,0,0-2.67,3.74l4.74,3.38-3.38,4.74A2.28,2.28,0,0,0,752,387Z"/><path class="cls-2" d="M733.9,390a2.27,2.27,0,0,0,1.71.4,2.35,2.35,0,0,0,1.5-.93,2.31,2.31,0,0,0-.54-3.21l-4.74-3.38,3.38-4.74a2.29,2.29,0,1,0-3.74-2.66l-4.69,6.58,0,0a2.31,2.31,0,0,0,.53,3.22h0Z"/><path class="cls-2" d="M741.3,394a2.32,2.32,0,0,0,2.63-1.91l3.38-21.54a2.3,2.3,0,1,0-4.54-.71l-3.38,21.53A2.3,2.3,0,0,0,741.3,394Z"/></g></svg>