<svg id="Camada_1" data-name="Camada 1" xmlns="http://www.w3.org/2000/svg" viewBox="0 0 512 64"><defs><style>.cls-1{fill:#3cbcc3;}</style></defs><title>Prancheta 1</title><path class="cls-1" d="M17.7,28.68l-2.22.82,2.22.78,17.93,6v8.86l-28.95-12V25.77l29-12v8.83Z"/><path class="cls-1" d="M82.08,29H62.51V42.42H85.38v7.42H53.29V2.22h32V9.71H62.51v12H82.08Z"/><path class="cls-1" d="M99.08,31.85a27.42,27.42,0,0,1,.92-7.36,17.06,17.06,0,0,1,2.69-5.71,12.46,12.46,0,0,1,4.39-3.68,13.11,13.11,0,0,1,6-1.3,11.73,11.73,0,0,1,5.25,1.11,11.54,11.54,0,0,1,3.87,3.14l.56-3.6h8v49h-9.13V46.84a11.15,11.15,0,0,1-3.73,2.71,12,12,0,0,1-4.91,1,12.49,12.49,0,0,1-5.92-1.36,12.65,12.65,0,0,1-4.35-3.76,17.54,17.54,0,0,1-2.7-5.69,26.2,26.2,0,0,1-.93-7.15Zm9.09.69a20,20,0,0,0,.4,4.12,10.89,10.89,0,0,0,1.24,3.39,6.51,6.51,0,0,0,2.21,2.3,6,6,0,0,0,3.29.85,7.27,7.27,0,0,0,3.9-.94,6.77,6.77,0,0,0,2.41-2.62v-15a6.39,6.39,0,0,0-2.41-2.53,7.42,7.42,0,0,0-3.84-.9,6.14,6.14,0,0,0-3.29.83,6.7,6.7,0,0,0-2.22,2.27,10.73,10.73,0,0,0-1.28,3.39,20.63,20.63,0,0,0-.41,4.2Z"/><path class="cls-1" d="M169.47,44.87A13.7,13.7,0,0,1,165.14,49a10.7,10.7,0,0,1-5.55,1.5,14.33,14.33,0,0,1-5-.85,9.64,9.64,0,0,1-3.92-2.7,12.77,12.77,0,0,1-2.54-4.71,23.1,23.1,0,0,1-.9-6.88V14.45h9.1v21a17.71,17.71,0,0,0,.31,3.63,5.87,5.87,0,0,0,1,2.37,3.79,3.79,0,0,0,1.8,1.3,8.22,8.22,0,0,0,2.71.39,8.43,8.43,0,0,0,4.42-1,6.72,6.72,0,0,0,2.58-2.83V14.45h9.13V49.84H170Z"/><path class="cls-1" d="M196.22,14.45h19.27v28h9.59v7.39H196.22V42.45H206.3V21.88H196.22Zm9.43-9.06A5,5,0,0,1,206,3.44a4.51,4.51,0,0,1,1.06-1.54,5,5,0,0,1,1.66-1,6,6,0,0,1,2.14-.36,5.35,5.35,0,0,1,3.84,1.35,4.62,4.62,0,0,1,1.43,3.49,4.58,4.58,0,0,1-1.43,3.48,5.32,5.32,0,0,1-3.84,1.36,6,6,0,0,1-2.14-.36,4.85,4.85,0,0,1-1.66-1A4.42,4.42,0,0,1,206,7.33,4.93,4.93,0,0,1,205.65,5.39Z"/><path class="cls-1" d="M272.5,32.47a27.18,27.18,0,0,1-.9,7.17A17.38,17.38,0,0,1,269,45.35a12.67,12.67,0,0,1-4.33,3.78,12.49,12.49,0,0,1-5.92,1.37,12.07,12.07,0,0,1-5-1,11.45,11.45,0,0,1-3.76-2.75V63.45h-9.09v-49h8.41l.32,3.47a11.58,11.58,0,0,1,3.86-3.05,12,12,0,0,1,5.2-1.07,13.2,13.2,0,0,1,6,1.29,12.16,12.16,0,0,1,4.35,3.66,16.72,16.72,0,0,1,2.66,5.69,28.08,28.08,0,0,1,.9,7.35Zm-9.09-.68a20.34,20.34,0,0,0-.41-4.17,10.75,10.75,0,0,0-1.27-3.37A6.46,6.46,0,0,0,259.5,22a6.2,6.2,0,0,0-3.29-.82,7.42,7.42,0,0,0-3.91.93,6.38,6.38,0,0,0-2.37,2.63V39.54a7,7,0,0,0,2.37,2.67,7.2,7.2,0,0,0,4,1,6.08,6.08,0,0,0,3.29-.85,6.46,6.46,0,0,0,2.2-2.32A11.08,11.08,0,0,0,263,36.61a20.94,20.94,0,0,0,.39-4.14Z"/><path class="cls-1" d="M304.78,50.5a19.8,19.8,0,0,1-7.42-1.34,17.78,17.78,0,0,1-5.73-3.65A16.12,16.12,0,0,1,288,40.08a17.33,17.33,0,0,1-1.29-6.69V32.08a20.73,20.73,0,0,1,1.28-7.41,17.27,17.27,0,0,1,3.56-5.77,16,16,0,0,1,5.43-3.76,17.18,17.18,0,0,1,6.84-1.34,17.61,17.61,0,0,1,6.82,1.25,14.16,14.16,0,0,1,5.07,3.55,15.32,15.32,0,0,1,3.16,5.52,22.24,22.24,0,0,1,1.08,7.11v3.86h-24A9.86,9.86,0,0,0,297,38.38a9,9,0,0,0,4.89,4.24,10.16,10.16,0,0,0,3.5.58,13.35,13.35,0,0,0,2.67-.26,12.57,12.57,0,0,0,2.53-.77,10.63,10.63,0,0,0,2.26-1.26,8.74,8.74,0,0,0,1.83-1.76l4.55,4.9A13.06,13.06,0,0,1,317,46.43a15.05,15.05,0,0,1-3.2,2.06,20.91,20.91,0,0,1-4.11,1.45A20.42,20.42,0,0,1,304.78,50.5Zm-1.07-29.34a7.16,7.16,0,0,0-2.82.54,6.54,6.54,0,0,0-2.24,1.55A9.15,9.15,0,0,0,297,25.67a13.75,13.75,0,0,0-1,3.14H311v-.72a8.66,8.66,0,0,0-.56-2.71,6.27,6.27,0,0,0-1.4-2.21,6.71,6.71,0,0,0-2.24-1.47A8.11,8.11,0,0,0,303.71,21.16Z"/><path class="cls-1" d="M381.88,26.39l2.71-24.17H411V9.94H392.08L390.94,20.4a16.27,16.27,0,0,1,2.88-1.21,13.64,13.64,0,0,1,4.28-.62,16.23,16.23,0,0,1,6.14,1.1,12.12,12.12,0,0,1,4.54,3.15,13.92,13.92,0,0,1,2.83,5,21.32,21.32,0,0,1,1,6.74,19.41,19.41,0,0,1-1,6.09,14.32,14.32,0,0,1-2.92,5.07,13.7,13.7,0,0,1-4.94,3.46,17.72,17.72,0,0,1-7,1.28,19.41,19.41,0,0,1-5.94-.92,15.83,15.83,0,0,1-5.08-2.68,13.94,13.94,0,0,1-3.62-4.33,13,13,0,0,1-1.49-5.88h9a7.12,7.12,0,0,0,2.24,4.81,7,7,0,0,0,4.89,1.7,6.66,6.66,0,0,0,3.12-.68,5.73,5.73,0,0,0,2.1-1.9,8.71,8.71,0,0,0,1.17-2.88,16.36,16.36,0,0,0,.38-3.6,12.36,12.36,0,0,0-.47-3.48,7.46,7.46,0,0,0-1.46-2.73,6.47,6.47,0,0,0-2.45-1.77,9,9,0,0,0-3.47-.62,10.45,10.45,0,0,0-2.32.23,8.44,8.44,0,0,0-1.74.59,7.07,7.07,0,0,0-1.34.83c-.39.32-.76.65-1.11,1Z"/><path class="cls-1" d="M439.38,53.93h-8.47L448.74,2.22h8.47Z"/><path class="cls-1" d="M475.88,22.56v-8.8l29.44,12v7.42l-29.44,12V36.33l18.75-6.28,2-.65-2-.66Z"/></svg>